<svg xmlns="http://www.w3.org/2000/svg" viewBox="0 0 16.5 16.8">
  <path d="M6.8 12.7l-1.5-1.8a.764.764 0 0 0-.5-.2c-.2 0-.3.1-.4.1a.758.758 0 0 0-.1 1l2 2.3a2.186 2.186 0 0 0 .5.3c.2 0 .3-.1.5-.2L12 9.6a.666.666 0 0 0 0-1 .758.758 0 0 0-.4-.2.764.764 0 0 0-.5.2zm7.5-11.1h-1.5v-1a.6.6 0 0 0-1.2 0v1H8.8v-1a.645.645 0 0 0-.6-.6.669.669 0 0 0-.7.6v1H4.8v-1a.645.645 0 0 0-.6-.6.645.645 0 0 0-.6.6v1H2.1A2.112 2.112 0 0 0 0 3.7v11a2.051 2.051 0 0 0 2.1 2.1h12.3a2.112 2.112 0 0 0 2.1-2.1v-11a2.353 2.353 0 0 0-2.2-2.1zm.8 13.1a.882.882 0 0 1-.8.9H2a.789.789 0 0 1-.8-.8V7.2H5a.645.645 0 0 0 .6-.6c0-.3-.3-.7-.6-.7H1.2V3.7a.789.789 0 0 1 .8-.8h1.5v1a.645.645 0 0 0 .6.6.645.645 0 0 0 .6-.6v-1h2.7v1a.645.645 0 0 0 .6.6.645.645 0 0 0 .6-.6v-1h2.7v1a.6.6 0 0 0 1.2 0v-1H14a.789.789 0 0 1 .8.8v2.2h-3.7a.645.645 0 0 0-.6.6.645.645 0 0 0 .6.6h3.8v7.6z" fill="#757575"/>
</svg>
