<svg xmlns="http://www.w3.org/2000/svg" viewBox="0 0 41.5 40"><path data-name="Path 2653" d="M39.188 32.121v-16.22a5.87 5.87 0 0 0 2.187-4.556V1.25A1.25 1.25 0 0 0 40.125 0H1.694a1.25 1.25 0 0 0-1.25 1.25v10.095a5.866 5.866 0 0 0 2.108 4.49v16.2a3.755 3.755 0 0 0-2.553 3.553v.667a3.754 3.754 0 0 0 3.75 3.75h34a3.754 3.754 0 0 0 3.75-3.75v-.667a3.755 3.755 0 0 0-2.311-3.467zm-7.4-20.776V2.5h7.09v8.845a3.577 3.577 0 0 1-7.107.419c.007-.139.014-.278.014-.419zM22.152 2.5h7.09v8.845c0 .141.007.28.017.419a3.577 3.577 0 0 1-7.107-.419V2.5zm-9.567 8.845V2.5h7.067v8.845a3.578 3.578 0 0 1-7.092.518c.012-.171.021-.343.021-.518zM11.3 14.989a6.144 6.144 0 0 0 9.6-.043 6.144 6.144 0 0 0 9.613.029 6.11 6.11 0 0 0 4.8 2.3 6.2 6.2 0 0 0 1.381-.157v14.715h-2.021V20.75a1.25 1.25 0 0 0-1.25-1.25h-9.167a1.25 1.25 0 0 0-1.25 1.25v11.083H5.053v-14.73a6.194 6.194 0 0 0 1.46.175 6.112 6.112 0 0 0 4.783-2.289zM32.17 22v9.833h-6.667V22zM2.948 2.5h7.067v8.845c0 .175.009.347.025.518a3.578 3.578 0 0 1-7.092-.518zm36.056 33.75a1.251 1.251 0 0 1-1.25 1.25h-34a1.251 1.251 0 0 1-1.25-1.25v-.667a1.251 1.251 0 0 1 1.25-1.25h34a1.251 1.251 0 0 1 1.25 1.25zM8.254 29.5h11a1.25 1.25 0 0 0 1.25-1.25v-7.667a1.25 1.25 0 0 0-1.25-1.25h-11a1.25 1.25 0 0 0-1.25 1.25v7.667A1.25 1.25 0 0 0 8.25 29.5zm1.25-7.667h8.5V27h-8.5z" fill="#917f4d"/></svg>
