<svg xmlns="http://www.w3.org/2000/svg" viewBox="0 0 399.811 328.035"><path data-name="Trazado 2659" d="M386.563 199.086c-.028 1.275.056 2.529.105 3.783.1 2.387-.042 5.029-.162 7.7-.246 2.641-.395 5.325-.733 7.74a4.216 4.216 0 0 1-.416 1.437c-.126.078-.232-.056-.331-.331-.338 2.958-.733 5.86-1.254 8.614-.282 1.458-.627 2.909-1.021 4.332.225-.176.359-.035.225.979-.134.908-.19 1.683-.282 2.535-.3.874-2.958 7.064-3.768 8.375a81.78 81.78 0 0 1-5.649 9.227c-2.606 3.6-5.374 6.635-5.944 6.755.261-.056-.169.676-.683 1.268s-1.071 1.141-1.6 1.718c-1.028 1.113-1.317 2.219-2.754 3.191a16.916 16.916 0 0 0-3.628 3.24 6.6 6.6 0 0 1-.958.866c-2.071 1.338-4.451 3.769-6.67 5.6-1.268 1.071-2.8 2.085-3.973 3.028-1.183.965-.5 1.071-2.536 2.064a8.754 8.754 0 0 0-1.113.831c-1.472 1.3-6.959 5.269-6.522 3.937a3.439 3.439 0 0 1 .683-.937q-5.431 3.793-11.065 7.283c.092.049.148.113.106.212a1.108 1.108 0 0 1-.345.4c-1.521 1.162-3.057 2.324-4.543 3.458-1.155.613-2.155 1.056-3.085 1.472-2.719 1.162-3.2 1.331-2.339.359q-6.55 3.581-13.249 6.677c-.134.134.366.021.824-.12.606-.183 1.324-.373.162.268a44.611 44.611 0 0 1-4.3 2.289c-1.782.782-3.606 1.486-5.43 2.176l-5.035 1.994c-1.69.606-3.388 1.2-5.064 1.81a6.871 6.871 0 0 1-2.585.62c-.282-.106.148-.451.613-.789-.268.1-.528.2-.8.282a1.289 1.289 0 0 1-.232.071c-.93.866-5.382 2.247-7.135 2.669-1.9.458-3.958 1.247-5.8 1.648a4.176 4.176 0 0 1-1.923.084c-3.268.881-6.565 1.7-9.868 2.458a.038.038 0 0 0 .028.021c.078.035-.289.289-.55.373-.176.049-.359.106-.535.155-.81.239-1.655.479-2.486.683-.627.155-1.606.218-1.866.352-1.522.8-3.445.859-5.156 1.19-3.008.556-6.036 1.036-9.058 1.535-.655.113-1.367.219-1.965.261a4.134 4.134 0 0 1-2.19-.141q-3.909.549-7.84.979a8.046 8.046 0 0 1-2.972.9c-1.951.3-3.874.768-5.987 1-3.317.049-6.613.063-9.931.169-2 .042-4.007.183-6.008.2l-6.022-.183c-3.381-.162-6.755-.317-10.135-.486a41.063 41.063 0 0 0-5.466-.479c-2.761.141-5.389-1.254-7.861-.732a79.513 79.513 0 0 1-8.684-1.458c-2.472-.486-4.944-1.014-7.367-1.6a52.3 52.3 0 0 0-5.987-1.141c-1.881-.289-3.916-1.05-5.867-1.324-1.105-.162-1.859-.141-3.141-.366-.824-.134-1.62-.331-2.423-.5-.543-.106-1.085-.212-1.655-.282a17.452 17.452 0 0 1-5.621-1.282 37.507 37.507 0 0 1-8.149-1.127c-.775-.2-1.071-.43-1.071-.62q-4.976-.729-9.945-1.528c-.014.007-.035.007-.049.021-.979.486-.894.479-3.6.042-1.043-.162-2.085-.2-3.142-.352-1.007-.162-2.085-.359-3.057-.613-2.162-.556-2.31-.746-1.028-1.007l.155-.021c-4.445-.894-8.861-1.937-13.228-3.184a1.757 1.757 0 0 0-.549.388c-.3.429-1.078.338-2.994-.3-5.029-1.585-9.938-3.627-14.854-5.713-1.818-.894-3.325-1.88-5.043-2.845-1.993-1.225-3.613-1.965-5.592-3.148-2.339-1.585-4.465-3.05-6.431-4.55-1.923-1.613-3.846-2.937-5.571-4.655-1.127-1.092-2.346-2.036-3.4-3.247-1.071-1.176-2.183-2.3-3.212-3.557-.908-1.218-1.74-2.423-2.564-3.6a5.076 5.076 0 0 1-.282-.472c-.662-1.078-1.261-2.184-1.951-3.247l-.564-.894-.479-.993c-.31-.669-.627-1.345-.937-2.029a28.417 28.417 0 0 1-1.549-4.233c-.761-2.113-1.184-4.345-1.747-6.522-.289-1.092-.4-2.212-.627-3.318-.176-1.12-.437-2.219-.549-3.346-.028-.275-.056-.556-.085-.831-.2-1.726-.444-3.437-.542-5.163-.035-.754-.085-1.514-.134-2.268-.085-1.254-.169-2.5-.183-3.747-.028-1.831-.127-3.824-.085-5.67.021-.923.078-3.268.127-5.4.091-2.127.289-4.036.5-4.092.183-.042.31.62.4 1.3.126.965.239 2.071.338 3.233q.085-2.24.211-4.571c.183-3.592.43-7.346.726-11.3a74.57 74.57 0 0 1 2.056-12.5c-.028 0-.063.014-.091 0-.55-.3-.233-3.177.613-5.994.112-.387.225-.753.338-1.113.134-.416.268-.81.408-1.177.8-2.162 1.712-3.754 2.465-5.987a33.1 33.1 0 0 0 .739-3.233 40.15 40.15 0 0 1 2.12-5.261 23.059 23.059 0 0 0 1.2-3.128c.162-.486.31-.986.465-1.493.648-1.972 1.141-3.993 1.634-6 .239-1.014.528-2.008.739-3.022l.542-3.078.387-2.029c.106-.683.176-1.373.261-2.056.141-1.381.4-2.74.458-4.121a47.233 47.233 0 0 0 .317-6.106c-.042-.606-.134-1.085-.2-1.634-.246-2.17-.592-8.854.056-9.079.1-.035.2.085.3.289-.169-2.994-.345-6.184-.444-9.706a111.792 111.792 0 0 1 .268-11.29.477.477 0 0 0-.064.119c-.119.233-.162-.634-.07-1.077.176-.895-.247-.063-.38-1.634a42.5 42.5 0 0 1 .345-5.12c.711-3.578 1.155-6.325 1.768-8.84.676-2.3.923-2.394.88-.774a135.924 135.924 0 0 1 4.494-16.009c-.26.45-.563 1.113-.69 1.113-.316-.007-.007-2.212.564-3.613l1.465-3.958c.063-.134.127-.282.183-.416.507-1 .937-2.007 1.486-3.021.458-.895.092-.845.7-2.261.739-1.683 1.493-3.233 2.261-4.726s1.683-2.817 2.521-4.247c.148-.24.359-.465.443-.648.529-1.177 1.057-2.353 1.564-3.486.549-1.1.923-.8 1.754-2.48a26.661 26.661 0 0 1 4.226-5.994c1.162-1.261 1.268-1.1.535.2a129.058 129.058 0 0 1 8.276-10.748c-.112.092-.19.028-.155-.092.162-.62 1.345-2.169.845-2.169.071-.092.662-.831 1.014-1.225a82.263 82.263 0 0 1 12.255-11.727l.6-.226c1.416-1.162 2.824-2.409 4.338-3.465 1.543-1 3.092-2.007 4.635-3a27.582 27.582 0 0 1 3.233-1.817l3.282-1.691a31.669 31.669 0 0 1 3.338-1.479l3.353-1.374c4.515-2.015 9.529-3.318 14.157-4.9 2.338-.733 4.613-1.226 6.881-1.832a68.76 68.76 0 0 1 6.937-1.549l4.867-.838 2.437-.409 2.444-.282c2.367-.268 4.768-.817 7.086-1.021.916-.092 1.225-.246 1.071.1a2.645 2.645 0 0 0 .711.056c.55-.105 1.169-.345 1.515-.056.429.352 1.19.268 2.092.056a11.508 11.508 0 0 1 4.078-.169 6.291 6.291 0 0 0 2.585-.12c1.381-.669 4.487-.45 6.726-.3 2.536.12 4.916.543 7.29.733 2.366.246 4.719.239 7.163.268.979-.007 3.12.507 2.409.782a6.928 6.928 0 0 1-1.177.331q7.533.76 15.087 2.007a1.379 1.379 0 0 1 1.2-.556 41.115 41.115 0 0 1 5.91.789c2.965.409 5.98 1.176 8.938 1.775 2.036.38 4.12.81 6.212 1.3 2.085.542 4.177 1.148 6.226 1.8 3.937 1.212 8.769 2.613 12.861 3.761l8.029 2.24c4.712 1.317 9.382 2.55 14.08 4.014 1.775.634 3.6 1.416 5.388 2.183.9.366 1.789.74 2.663 1.1s1.7.782 2.536 1.092c2.367.964 4.155 1.627 6.55 2.8 1.3.74 3.6 1.437 4.212 2.331.246.373-.078.472-.627.4-.1-.014-.225-.056-.331-.078 2.888 1.515 5.712 3.113 8.466 4.832.26-.232.986-.155 2.134.366 1.937.711 6.811 4.41 8.29 5.677.866.8 1.113 1.127.169.767-.493-.19-1.064-.451-1.606-.683a141.921 141.921 0 0 1 12.65 10.537c-.078-.324-.035-.521.211-.493a22.433 22.433 0 0 1 4.494 3.676c1.162 1.43 2.395 2.8 3.655 4.134l1.916 2.007 1.845 2.12c2.338 2.718 4.55 5.536 6.705 8.353 2.056 2.564 4.092 5.2 5.944 8.043l2.831 4.184c.951 1.381 1.8 2.867 2.712 4.29 1.415 2.3 3.282 4.7 4.2 6.811.824 1.81 3.458 5.944 4.536 8.036 1.289 2.571 2.775 5.444 4.275 8.283 1.451 2.888 2.874 5.776 4.191 8.283a29.692 29.692 0 0 1 1.458 3.332c.162.429.19 1.091.049.958-.268-.261-.536-.543-.81-.824q2.092 4.543 4.113 9.227c.437 1.007.845 2.078 1.254 3.142a.6.6 0 0 1 .078-.31 8.314 8.314 0 0 1 1.824 3.092c.479 2.169 1.549 3.9 2.007 6.3.366 1.655 1.458 4.148 2.007 6.367a13.7 13.7 0 0 1 .395 3.268c-.021.38-.3.155-.543-.19 1.17 4.832 2.163 9.9 2.994 15.066.535.049 1.211 1.641 1.542 3.993.3 2.67.613 5.325.839 8 .268 2.663.648 5.332.852 8.015a50.244 50.244 0 0 1 .232 7.4c-.05 1.262-.15 2.439-.187 3.798z" fill="#f4f4f4"/><g data-name="Grupo 2125"><g data-name="Grupo 2123"><g data-name="Grupo 2122" fill="#ee3224"><path data-name="Trazado 2660" d="M384.185 183.112v41.689a16.045 16.045 0 0 1-16.044 16.044h-16.027a16.045 16.045 0 0 1-16.044-16.044v-41.689a2.214 2.214 0 0 1 2.212-2.218h29.108l-1.569 9.238 3.211 3.708.242 8.4 1.292-8.713-2.342-4.966 2.946-7.664h10.8a2.217 2.217 0 0 1 2.215 2.215z"/><path data-name="Trazado 2661" d="M391.753 187.999h-10.31a2.539 2.539 0 0 0-2.54 2.539v28.347a2.543 2.543 0 0 0 2.54 2.54h10.31a8.071 8.071 0 0 0 8.059-8.059v-17.308a8.067 8.067 0 0 0-8.059-8.059zm2.98 25.367a2.984 2.984 0 0 1-2.98 2.979h-7.771v-23.267h7.771a2.985 2.985 0 0 1 2.98 2.98z"/></g></g><g data-name="Grupo 2124" transform="translate(339.265 117.407)" fill="#ddd"><path data-name="Trazado 2662" d="M5.61 42.324h12.74c-.078 0-.157 0-.235-.007a4.858 4.858 0 0 0 4.59-4.849v-.108a4.853 4.853 0 0 0-4.59-4.846c.089 0 .178-.007.268-.007H39.37a4.856 4.856 0 0 0-4.857 4.853v.108a4.859 4.859 0 0 0 4.84 4.857h.938a5.61 5.61 0 0 1 5.61 5.61v.124a5.61 5.61 0 0 1-5.61 5.61H5.611a5.61 5.61 0 0 1-5.61-5.61v-.124a5.61 5.61 0 0 1 5.609-5.611z"/><path data-name="Trazado 2663" d="M5.557 26.896v-.124a5.61 5.61 0 0 1 5.61-5.61h17.879a4.855 4.855 0 0 0 4.842-4.856v-.108a4.852 4.852 0 0 0-4.853-4.853h15.158a4.853 4.853 0 0 0-4.857 4.853v.108a4.856 4.856 0 0 0 4.846 4.856h5.848a5.61 5.61 0 0 1 5.61 5.61v.124a5.609 5.609 0 0 1-5.61 5.61H11.167a5.61 5.61 0 0 1-5.61-5.61z"/><rect data-name="Rectángulo 2145" width="36.417" height="11.344" rx="5.672" transform="translate(23.889)"/><path data-name="Trazado 2664" d="M6.692 53.676c.089 0 .178-.007.267-.007h28.552a4.856 4.856 0 0 0-4.857 4.853v.108a4.859 4.859 0 0 0 4.857 4.857H6.959c-.089 0-.178 0-.267-.007a4.856 4.856 0 0 0 4.589-4.85v-.108a4.85 4.85 0 0 0-4.589-4.846z"/><path data-name="Trazado 2665" d="M12.336 10.026a4.354 4.354 0 1 1 4.354-4.354 4.354 4.354 0 0 1-4.354 4.354z"/></g></g><g data-name="Grupo 2127"><path data-name="Trazado 2666" d="M.268 214.573l51.368-88.971a1.975 1.975 0 0 1 3.421 0l51.367 88.971a1.975 1.975 0 0 1-1.71 2.962H1.978a1.975 1.975 0 0 1-1.71-2.962z" fill="#fdbb30"/><g data-name="Grupo 2126" fill="#fff"><path data-name="Trazado 2668" d="M53.346 192.889a3.973 3.973 0 0 1-3.973-3.973v-30.743a3.9725 3.9725 0 1 1 7.945 0v30.744a3.973 3.973 0 0 1-3.972 3.972z"/><path data-name="Trazado 2669" d="M53.348 206.242a3.987 3.987 0 1 1 2.805-1.168 4.011 4.011 0 0 1-2.805 1.168z"/></g></g><path data-name="Trazado 2689" d="M397.855 244.702H3.844a1.929 1.929 0 1 1 0-3.858h394.011a1.929 1.929 0 1 1 0 3.858z" fill="#a7b3d1"/><g data-name="Grupo 2132"><path data-name="Trazado 2670" d="M323.471 227.516H90.04V98.304a10.47 10.47 0 0 1 10.469-10.47h212.5a10.47 10.47 0 0 1 10.47 10.47z" fill="#606b97"/><path data-name="Trazado 2671" d="M324.114 227.516h-1.286V98.304a9.837 9.837 0 0 0-9.826-9.826h-212.5a9.837 9.837 0 0 0-9.826 9.826v129.212H89.39V98.304a11.125 11.125 0 0 1 11.112-11.113h212.5a11.125 11.125 0 0 1 11.113 11.113z" fill="#b6c0dd"/><path data-name="Rectángulo 2146" fill="#fff" d="M96.485 97.823h220.538v119.703H96.485z"/><path data-name="Rectángulo 2147" fill="#d5d8e1" d="M96.485 97.823h220.538v9.003H96.485z"/><path data-name="Trazado 2672" d="M339.346 240.844H74.161a13.2 13.2 0 0 1-13.195-13.195v-.133H352.54v.133a13.2 13.2 0 0 1-13.194 13.195z" fill="#caccd9"/><path data-name="Trazado 2673" d="M209.005 92.678a2.251 2.251 0 1 1-2.251-2.25 2.251 2.251 0 0 1 2.251 2.25z" fill="#8b94a5"/><g data-name="Grupo 2128"><path data-name="Trazado 2674" d="M104.432 102.968a1.715 1.715 0 1 1-1.715-1.715 1.715 1.715 0 0 1 1.715 1.715z" fill="#f47779"/><path data-name="Trazado 2675" d="M110.739 102.968a1.715 1.715 0 1 1-1.715-1.715 1.714 1.714 0 0 1 1.715 1.715z" fill="#fcba00"/><path data-name="Trazado 2676" d="M117.034 102.968a1.715 1.715 0 1 1-1.715-1.715 1.715 1.715 0 0 1 1.715 1.715z" fill="#8dc756"/></g><path data-name="Trazado 2677" d="M145.194 101.816h-20.3a1.7 1.7 0 0 0-1.583 1.076l-1.555 3.934h26.579l-1.555-3.934a1.7 1.7 0 0 0-1.586-1.076z" fill="#fff"/><path data-name="Trazado 2678" d="M171.773 101.816h-20.3a1.7 1.7 0 0 0-1.583 1.076l-1.555 3.934h26.579l-1.555-3.934a1.7 1.7 0 0 0-1.586-1.076z" fill="#bdc2db"/><path data-name="Trazado 2679" d="M198.352 101.816h-20.3a1.7 1.7 0 0 0-1.582 1.076l-1.556 3.934h26.579l-1.556-3.934a1.7 1.7 0 0 0-1.585-1.076z" fill="#bdc2db"/><path data-name="Trazado 2687" d="M352.54 228.159H60.968v-.51h-.643v-.776h292.858v.776h-.643z" fill="#ebedf7"/><path data-name="Trazado 2688" d="M223.602 232.25h-33.7a5.324 5.324 0 0 1-5.324-5.324v-.053h44.343v.053a5.324 5.324 0 0 1-5.319 5.324z" fill="#8b94a5"/><text data-name="Error 404" transform="translate(207.215 151.512)" fill="#ee3224" font-size="30" font-family="ArialMT, Arial"><tspan x="-33.333" y="0">Error</tspan><tspan font-size="43" font-family="Arial-BoldMT, Arial" font-weight="700"><tspan x="-35.872" y="42">404</tspan></tspan></text></g><g data-name="Grupo 2136"><path data-name="Trazado 83" d="M370.172 220.228a3.043 3.043 0 0 0 3.487-2.475l1.181-7.312 1.519.675a1.883 1.883 0 0 1 .956 2.419l-4.219 9.506a1.883 1.883 0 0 1-2.419.956l-13.105-5.794z" fill="#fff"/><g data-name="Grupo 9" fill="#fdbb30"><path data-name="Trazado 84" d="M361.508 208.588a.968.968 0 1 0-1.35.225.983.983 0 0 0 1.35-.225z"/><path data-name="Trazado 85" d="M372.645 204.986l-18.73-3.037a4.776 4.776 0 0 0-3.262.844l-4.781 3.656a2 2 0 0 0-.731 1.856l.675 1.181c-.169.225-.337.506-.506.787a12.756 12.756 0 0 0-1.744 4.387v.056c-.337 2.194.506 3.094 1.069 3.431s1.687.675 3.544-.619a10.584 10.584 0 0 0 2.137-2.081 4.9 4.9 0 0 0 1.406.562l18.786 3.037a1.851 1.851 0 0 0 2.137-1.519l1.687-10.348a2.142 2.142 0 0 0-1.687-2.193zm-22.892 7.987a11.783 11.783 0 0 1-.844 1.237c-1.519 1.969-2.981 2.587-3.319 2.306-.112-.056-.337-.506-.225-1.575v-.056a10.814 10.814 0 0 1 1.519-3.768l1.35 2.137c.169-.225.45-.675.675-.956a13.617 13.617 0 0 0 1.181-2.419 1.869 1.869 0 0 1-.506-1.519 1.766 1.766 0 1 1 1.462 2.025h-.112a10.577 10.577 0 0 1-1.181 2.588zm8.662-4.612a2.391 2.391 0 0 1 4.725-.731 2.436 2.436 0 0 1-2.025 2.7 2.3 2.3 0 0 1-2.7-1.969zm1.125 6.468a.547.547 0 0 1-.056-.787l6.525-7.256a.55827793.55827793 0 1 1 .844.731l-6.527 7.312a.544.544 0 0 1-.786 0zm6.412 1.125a2.386 2.386 0 1 1 2.025-2.756 2.48 2.48 0 0 1-2.025 2.756z"/><path data-name="Trazado 86" d="M366.18 212.803a.968.968 0 1 0 .225 1.35.991.991 0 0 0-.225-1.35z"/></g></g></svg>
