<svg id="icon-hogar" xmlns="http://www.w3.org/2000/svg" viewBox="0 0 22.098 17.812"><defs><style>.a-icon-hogar{fill:#fff;}</style></defs><g transform="translate(-0.096 -0.025)"><path class="a-icon-hogar" d="M41.195,105.307v8.263h2.959c0-.412-.022-.832.007-1.251a7.536,7.536,0,0,1,.187-1.7,3.456,3.456,0,0,1,3.9-2.36,3.529,3.529,0,0,1,2.929,3.4c.022.622,0,1.244,0,1.9h2.959V105.3c.569.457,1.064.839,1.543,1.251.067.052.075.2.075.307.007,2.487.007,4.967,0,7.454a.812.812,0,0,1-.929.914H50.477c-.637,0-.929-.3-.936-.951-.007-.876.007-1.745-.007-2.622a1.876,1.876,0,0,0-3.409-1.041,2.3,2.3,0,0,0-.33,1.086c-.045.847-.015,1.693-.015,2.547,0,.689-.292.974-.981.974h-4.27c-.667,0-.951-.292-.951-.959,0-2.457-.007-4.914.007-7.379a.686.686,0,0,1,.225-.457C40.229,106.057,40.671,105.72,41.195,105.307Z" transform="translate(-36.521 -97.389)"/><path class="a-icon-hogar" d="M14.368,2.353c0-.517-.007-.951,0-1.386a.832.832,0,0,1,.914-.936q.955-.011,1.91,0c.659.007.951.3.959.974.007,1.333.007,2.667,0,4.008a.588.588,0,0,0,.255.532c1.056.817,2.1,1.656,3.139,2.48a4.791,4.791,0,0,1,.375.307.878.878,0,0,1,.1,1.154.825.825,0,0,1-1.146.067C19.8,8.705,18.721,7.851,17.649,7q-3.113-2.461-6.225-4.914c-.09-.067-.18-.135-.285-.217-1.056.832-2.1,1.656-3.146,2.48L1.476,9.5A.849.849,0,0,1,.27,9.492.886.886,0,0,1,.427,8.286c.315-.285.659-.539.989-.8Q5.933,3.911,10.458.353a.9.9,0,0,1,1.363,0C12.645,1,13.469,1.641,14.368,2.353ZM16,1.664c0,.547.03,1.056-.007,1.558-.037.434.195.614.524.779V1.664Z" transform="translate(0)"/></g></svg>