<svg id="icon-flecha" xmlns="http://www.w3.org/2000/svg" viewBox="0 0 243.278 92.408"><defs><style>.a-icon-flecha{fill:#fff;}</style></defs><g transform="matrix(1, 0.017, -0.017, 1, -208.201, -427.313)"><path class="a-icon-flecha" d="M62,.651h0c0-.064,0-.129-.064-.129V.458h0V.393h0L61.871.329,61.807.264h-.064A.063.063,0,0,1,61.678.2H61.42L.516,11.736h0c-.064,0-.064.064-.129.064s-.064,0-.129.064l-.064.064c-.064.064-.064.064-.064.129h0v.064C0,12.188,0,12.252,0,12.252v.193H0a.063.063,0,0,0,.064.064c0,.064.064.064.064.129l.064.064.129.129H.387L17.852,22.951l2.514,8.894h0v.064a6159.448,6159.448,0,0,0,.129.129h0l.064.064c.064,0,.064.064.129.064h.064c.064,0,.129.064.258.064h.258c.064,0,.064-.064.129-.064h0l5.349-4.125,14.179,8.185a.225.225,0,0,1,.129.064h.193a.769.769,0,0,0,.58-.322h0L61.936,1.038V.973A.063.063,0,0,1,62,.909V.844h0V.651ZM26.875,26.817h0l-2.191-1.289L59.422,2.714,40.861,34.874Zm-7.8-3.867L51.237,6.58,23.073,25.013h0l-.064.064-.064.064-.064.064h0v.129L21.01,29.782ZM2.449,12.7,56.973,2.2,18.3,21.855Z" transform="translate(397 426.708)"/><g transform="matrix(0.978, 0.208, -0.208, 0.978, 229.58, 417.593)"><path class="a-icon-flecha" d="M.5,62.7a.367.367,0,0,1-.3-.1.483.483,0,0,1,0-.7A23.554,23.554,0,0,1,2,60.1a.495.495,0,0,1,.7.7C1.6,61.9,1,62.6,1,62.6A4.33,4.33,0,0,0,.5,62.7Z"/><path class="a-icon-flecha" d="M5.9,57.5a.758.758,0,0,1-.4-.2.428.428,0,0,1,.1-.7c1.2-1.1,2.6-2.1,3.9-3.1a.5.5,0,1,1,.6.8c-1.3,1-2.6,2-3.8,3.1A.756.756,0,0,1,5.9,57.5Zm7.9-6a.52.52,0,0,1-.4-.2.494.494,0,0,1,.1-.7l4.2-2.7a.515.515,0,1,1,.5.9c-1.4.9-2.8,1.8-4.1,2.7Zm8.4-5.2c-.2,0-.3-.1-.4-.3a.663.663,0,0,1,.2-.7c1.5-.8,3-1.6,4.4-2.3a.515.515,0,1,1,.5.9c-1.5.7-2.9,1.5-4.4,2.3A.367.367,0,0,1,22.2,46.3Zm9-4.3a.55.55,0,0,1-.5-.3c-.1-.3,0-.5.3-.7,1.5-.6,3.1-1.2,4.7-1.8a.474.474,0,0,1,.3.9,43.7,43.7,0,0,0-4.6,1.8C31.3,42,31.3,42,31.2,42Zm9.3-3.3a.51.51,0,0,1-.5-.4.486.486,0,0,1,.3-.6c1.6-.5,3.2-.9,4.8-1.3.3-.1.5.1.6.4s-.1.5-.4.6l-4.8,1.2C40.6,38.7,40.6,38.7,40.5,38.7Zm9.7-2.2c-.2,0-.5-.2-.5-.4a.548.548,0,0,1,.4-.6c1.6-.3,3.3-.5,4.9-.7a.675.675,0,0,1,.6.4c.1.2-.2.5-.4.6-1.6.2-3.3.4-5,.7Zm49.5-.3a.5.5,0,0,1,0-1c1.6,0,3.3,0,4.9-.1a.5.5,0,0,1,0,1c-1.5.1-3.2.1-4.9.1Zm-4.9,0h0c-1.7,0-3.3,0-5-.1a.472.472,0,0,1-.5-.5.536.536,0,0,1,.5-.5c1.7,0,3.3.1,5,.1a.5.5,0,0,1,0,1ZM84.9,36h0c-1.7-.1-3.3-.1-5-.2a.5.5,0,0,1,0-1c1.7.1,3.3.1,5,.2a.472.472,0,0,1,.5.5A.536.536,0,0,1,84.9,36Zm24.8-.1a.5.5,0,0,1,0-1c1.7-.1,3.3-.2,4.9-.4a.5.5,0,0,1,0,1c-1.6.2-3.2.3-4.9.4Zm-34.8-.3h0c-1.7-.1-3.3-.1-5-.2a.472.472,0,0,1-.5-.5.536.536,0,0,1,.5-.5c1.7.1,3.3.1,5,.2a.5.5,0,0,1,0,1Zm-14.8-.2a.5.5,0,0,1,0-1c1.5-.1,2.9-.1,4.4-.1h.6a.5.5,0,0,1,0,1h-.6c-1.5,0-3,0-4.4.1Zm59.4-.4c-.2,0-.5-.2-.5-.4a.675.675,0,0,1,.4-.6c1.6-.2,3.3-.4,4.9-.7a.51.51,0,1,1,.2,1c-1.6.3-3.2.5-5,.7Zm9.8-1.6a.664.664,0,0,1-.5-.4c-.1-.3.1-.5.4-.6,1.6-.3,3.2-.7,4.8-1.1.3-.1.5.1.6.4s-.1.5-.4.6c-1.6.4-3.2.8-4.9,1.1Q129.45,33.4,129.3,33.4Zm9.6-2.4a.51.51,0,0,1-.5-.4.486.486,0,0,1,.3-.6c1.6-.5,3.2-1,4.7-1.5a.474.474,0,1,1,.3.9c-1.6.5-3.2,1-4.7,1.5C139,31,139,31,138.9,31Zm9.4-3.2a.55.55,0,0,1-.5-.3.419.419,0,0,1,.3-.6c1.5-.6,3.1-1.2,4.6-1.9.3-.1.5,0,.7.3s0,.5-.3.7c-1.5.7-3.1,1.3-4.6,1.9C148.5,27.8,148.4,27.8,148.3,27.8Zm9.2-3.9a.55.55,0,0,1-.5-.3.663.663,0,0,1,.2-.7c1.5-.7,3-1.4,4.4-2.2a.663.663,0,0,1,.7.2.663.663,0,0,1-.2.7c-1.5.8-3,1.5-4.5,2.2A.1.1,0,0,1,157.5,23.9Zm8.8-4.6c-.2,0-.3-.1-.4-.3a.527.527,0,0,1,.2-.7c1.4-.8,2.8-1.6,4.3-2.5a.515.515,0,0,1,.5.9c-1.4.9-2.9,1.7-4.3,2.5A.774.774,0,0,1,166.3,19.3Zm8.4-5.1a.52.52,0,0,1-.4-.2.616.616,0,0,1,.1-.7c1.4-.9,2.8-1.8,4.1-2.7a.5.5,0,1,1,.6.8c-1.4.9-2.8,1.9-4.1,2.8Zm8.2-5.6a.52.52,0,0,1-.4-.2.494.494,0,0,1,.1-.7c1.3-1,2.6-1.9,4-2.9a.5.5,0,1,1,.6.8c-1.3,1-2.7,2-4,3Z"/><path class="a-icon-flecha" d="M190.9,2.6a.758.758,0,0,1-.4-.2.494.494,0,0,1,.1-.7c.6-.5,1.3-1,1.9-1.6a.494.494,0,0,1,.7.1.494.494,0,0,1-.1.7c-.7.5-1.3,1.1-2,1.6A.349.349,0,0,1,190.9,2.6Z"/></g></g></svg>