<svg id="icon-viaje" xmlns="http://www.w3.org/2000/svg" viewBox="0 0 20.258 15.951"><defs><style>.a-icon-viaje{fill:none;stroke:#fff;stroke-width:1.25px;}</style></defs><g transform="translate(0.887 0.688)"><path class="a-icon-viaje" d="M20.154,6.651l-3.72-1.539a2.384,2.384,0,0,0-2.434.6l3.169,2.319Z" transform="translate(-10.785 -3.83)"/><path class="a-icon-viaje" d="M18.509,1.282A1.875,1.875,0,0,0,16.144.157L4.2,5.806,2.733,4.7S1.883,3.556,0,4.658L2.825,8.907A1.823,1.823,0,0,0,5.1,9.894l4.662-2.2-.689,6.545,1.194-.551a19.311,19.311,0,0,0,2.962-7.647l4.639-2.2A1.88,1.88,0,0,0,18.509,1.282Z" transform="translate(0 0)"/></g></svg>