<svg id="icon-experiencias" xmlns="http://www.w3.org/2000/svg" viewBox="0 0 18.044 19.138"><defs><style>.a-icon-experiencias{fill:#fff;}</style></defs><g transform="translate(0 0.036)"><g transform="translate(5.748 0.011)"><g transform="translate(0 0)"><g transform="translate(0 6.863)"><path class="a-icon-experiencias" d="M26.252,33h0c-.069-.023.023.069,0,0V32h-1a4.84,4.84,0,0,1,0-1c0-.069-.046.023,0,0h1V30c0-.069-.069.023,0,0s-.046-.046,0,0h1c.069-.023-.046-.046,0,0a4.845,4.845,0,0,1,0,1h0v1c.023.069.023-.046,0,0-.046.046.069.023,0,0h0l-1,1C26.229,33.044,26.3,33,26.252,33Zm-1-2,1,1c.046.023,0-.069,0,0h0c.046-.046-.069-.023,0,0h1V31c-.023-.046-.023.046,0,0h-1c-.069,0,.046.046,0,0v0c0,.069.046-.023,0,0Z" transform="translate(-25 -29.861)"/></g><g transform="translate(8.547 3)"><path class="a-icon-experiencias" d="M63.88,17.06h0c-.092-.023.046.092,0,0v-1h-2c-.092-.023,0-.908,0-1-.023-.092-.092.069,0,0l1-1v-1c0-.092-.092.046,0,0a2.92,2.92,0,0,1,1,0l1,1,1-1c.092-.046-.069-.092,0,0a3.641,3.641,0,0,1,0,1v2c.069.092.046-.092,0,0s.092,0,0,0h-1l-1,1C63.857,17.129,63.972,17.06,63.88,17.06Zm-1-2h1c.092.023-.023.908,0,1h1c.046-.069-.092,0,0,0h1l-1-1c-.046-.069-.023.092,0,0v-1h0a4.844,4.844,0,0,1-1,0h0v1c0,.092.069-.046,0,0Z" transform="translate(-62.175 -13.061)"/></g><g transform="translate(2.525 0.081)"><path class="a-icon-experiencias" d="M36.708,3.282c-.023,0,.023.023,0,0-.092-.046,0,.092,0,0v-1h-1c-.069-.046-.023.092,0,0,0-.092-.092-.954,0-1h1v-1c.023-.092.885.023,1,0,.092-.023-.069-.092,0,0v1h1c.092,0-.046-.069,0,0,.046.092.046-.069,0,0v2c.046.092.069-.069,0,0s.115.023,0,0h-1A7.258,7.258,0,0,1,36.708,3.282Zm0-1h1c.069.046,0-.092,0,0v0c.069-.069-.092-.023,0,0h0c-.046-.092-.046.069,0,0l1-1h-1c-.092,0,.046.069,0,0h0a6.853,6.853,0,0,1-1,1Z" transform="translate(-35.98 -0.364)"/></g><g transform="translate(6.465)"><path class="a-icon-experiencias" d="M54.906,3.01c-.092,0,.046.069,0,0h-2c-.092,0,.046-.908,0-1-.069-.092-.069.069,0,0l1-1h0a3.641,3.641,0,0,1,0-1c.069-.069-.092-.046,0,0l1,1v-1a2.921,2.921,0,0,1,1,0c.092.046,0-.115,0,0v1l1,1c.092.069.023-.115,0,0a7.223,7.223,0,0,1-1,0h0l-1,1c-.046.092.115-.023,0,0Zm-1-1h1c.092,0-.046-.069,0,0v0c.023-.092-.092.023,0,0h1l-1-1c-.069-.046-.023.092,0,0h0c-.069.046.092.046,0,0h-1a4.844,4.844,0,0,1,0,1Z" transform="translate(-53.119 -0.011)"/></g><g transform="translate(2.77 3.808)"><path class="a-icon-experiencias" d="M40.532,21.766c-.069,0,.046.046,0,0l-1-1-2,1c-.092.023.069-.931,0-1s-.023.092,0,0v-3c-.046-.092-.046.069,0,0,.046-.092-.092-.023,0,0h1l1-1a3.641,3.641,0,0,1,1,0c.092.023,0-.092,0,0v2h2c.092.046,0-.092,0,0s.092.954,0,1h-2v2c0,.092.092-.046,0,0C40.509,21.743,40.578,21.766,40.532,21.766Zm-1-1c.069,0-.046-.046,0,0h1v-1c0-.092-.069.046,0,0l1-1h-1c-.092-.046.023.069,0,0v-1l-1,1c-.069.069.092,0,0,0l-2-1,1,2c.046.069.023-.092,0,0l-1,1Z" transform="translate(-37.05 -16.574)"/></g></g></g><g transform="translate(0 0.767)"><rect class="a-icon-experiencias" width="8.691" height="7.058" transform="matrix(0.947, -0.321, 0.321, 0.947, 4.526, 11.651)"/><rect class="a-icon-experiencias" width="9.909" height="1.632" transform="translate(1.142 9.46) rotate(-51.003)"/><path class="a-icon-experiencias" d="M9.49,3.543c-.23,3.633,2,5,2,5s-1.356-1.62,0-5l-1,1Z" transform="translate(-7.49 -3.3)"/><path class="a-icon-experiencias" d="M0,24.976c2.575-.966,4,0,4,0a4.3,4.3,0,0,0-4,1l1-1Z" transform="translate(0 -19.732)"/><g transform="translate(0.42 1.449)"><path class="a-icon-experiencias" d="M16.778,13.4a2.883,2.883,0,0,1,0-2,4.591,4.591,0,0,1,1-2c.184-.115-.207-.046,0,0,.345.092,1.506.391,1,2-.368,1.2-1.954,1.954-2,2v0Zm0-2a5.273,5.273,0,0,0,0,2,7.036,7.036,0,0,0,1-2c.276-.92.184-.954,0-1-.023,0,.069-.046,0,0A1.366,1.366,0,0,0,16.778,11.4Z" transform="translate(-13.198 -9.603)"/><path class="a-icon-experiencias" d="M5.407,27.718c-.023.046.058.31-1,1a4.866,4.866,0,0,1-2,1c-.23-.023.115.161,0,0-.184-.276-.379-1.057,1-2a8.5,8.5,0,0,1,2-1h0Zm-2,1a2.735,2.735,0,0,0,1-1c-.414.046-.448-.368-1,0-.8.552-1.115.839-1,1,.023.023-.092,1,0,1C2.545,29.763,2.648,29.223,3.407,28.718Z" transform="translate(-1.827 -22.923)"/></g></g></g></svg>