<svg id="icon-educacion" xmlns="http://www.w3.org/2000/svg" viewBox="0 0 17.365 18.086"><defs><style>.a-icon-educacion{fill:#fff;}</style></defs><g transform="translate(-2.491 -0.519)"><g transform="translate(2.491 0.519)"><g transform="translate(0 7.202)"><path class="a-icon-educacion" d="M19.854,42.959c0-.005,0-.011,0-.016a.016.016,0,0,0,0-.006c0-.007,0-.015,0-.022l0-.023-.005-.024c0-.009,0-.017-.006-.026v-.007c0-.007,0-.013-.006-.02s-.006-.02-.01-.029-.008-.021-.012-.031l-.01-.023,0-.006,0,0c0-.011-.011-.023-.017-.035s-.014-.026-.021-.039l-.011-.017-.009-.015-.012-.02c-.012-.017-.024-.033-.037-.05l-.02-.028-.005-.006-.036-.041-.026-.027-.012-.011,0,0-.009-.009-.022-.02-.022-.019-.022-.018-.018-.014h0l0,0-.022-.016-.022-.015L19.42,42.3l-.022-.013-.01-.006h0l-.011-.006-.022-.012-.022-.011-.022-.01-.022-.009-.008,0-.008.008a.279.279,0,0,0-.022-.025,1.066,1.066,0,0,1-.231-1.231l.506-.458.024-.025.017-.022,0,0,0,0,.009-.015.01-.019.008-.02,0-.008v0l0-.009c0-.006,0-.012,0-.019a.142.142,0,0,0,0-.02c0-.006,0-.013,0-.019a.064.064,0,0,0,0-.008v0s0-.006,0-.009,0-.013,0-.02a.13.13,0,0,0,0-.021.169.169,0,0,0,0-.021c0-.005,0-.01,0-.016a.02.02,0,0,1,0-.007c0-.007,0-.015,0-.022s0-.015,0-.023l0-.024-.006-.026a0,0,0,0,1,0,0l0-.005c0-.006,0-.013-.005-.019l-.01-.03-.012-.031-.01-.023,0-.005,0-.005c-.005-.012-.011-.024-.018-.035l-.021-.039-.008-.013-4.8,4.351-2.2,1.989-.662.6c-.113.1-.182.165-.229.2h0a.46.46,0,0,1-.357.155.694.694,0,0,1-.248-.049l-1.119-.425-.015.009.011-.011L3.635,44.376a1.786,1.786,0,0,1-.609-.4l-.366.332h0v0h0a.591.591,0,0,0-.164.508l.165,1.863A1.481,1.481,0,0,0,3,47.443a1.7,1.7,0,0,0,.7.529l7.377,2.8a.356.356,0,0,0,.414-.058c-.008.01,5.509-4.986,8.276-7.494l.024-.025.017-.022s0,0,0,0v0l.009-.016a.108.108,0,0,0,.01-.02.165.165,0,0,0,.009-.019.074.074,0,0,0,0-.008v0l0-.009c0-.006,0-.012,0-.019s0-.013,0-.019,0-.012,0-.019a.042.042,0,0,1,0-.008.011.011,0,0,1,0,0,.042.042,0,0,0,0-.01.171.171,0,0,0,0-.02c0-.007,0-.014,0-.02S19.855,42.966,19.854,42.959Zm-8.641,6.582h0a.485.485,0,0,1-.5.106L4.158,47.154c-.149-.06-.438-.141-.471-.386L3.6,45.79c-.018-.2.144-.4.337-.331l6.9,2.621a.36.36,0,0,0,.406-.05l7.129-6.457a1.623,1.623,0,0,0,.493,1.038Z" transform="translate(-2.491 -39.93)"/></g><path class="a-icon-educacion" d="M19.854,6.823c0-.005,0-.011,0-.016a.016.016,0,0,0,0-.006c0-.007,0-.015,0-.023l0-.023-.005-.024-.006-.026V6.7c0-.007,0-.013-.006-.02s-.006-.019-.01-.029-.008-.021-.012-.031L19.8,6.6l0-.006,0,0c0-.011-.011-.023-.017-.035l-.021-.039-.011-.017-.009-.015-.012-.02c-.012-.017-.024-.033-.037-.05l-.02-.028-.005-.007-.036-.041L19.6,6.306l-.012-.011,0,0-.009-.008-.022-.021-.022-.019-.022-.018-.018-.014h0l0,0-.022-.016-.022-.015-.022-.014L19.4,6.15l-.01-.006h0l-.011-.006-.022-.012-.022-.011-.022-.01L19.289,6.1l-.008,0-.008.007a.275.275,0,0,0-.022-.025,1.066,1.066,0,0,1-.231-1.231l.506-.458.024-.025.017-.022,0,0,0,0,.009-.015.01-.019.008-.02,0-.008v0l0-.009c0-.007,0-.012,0-.019a.145.145,0,0,0,0-.019c0-.006,0-.013,0-.019a.057.057,0,0,0,0-.008v0s0-.006,0-.009,0-.013,0-.02a.13.13,0,0,0,0-.021.167.167,0,0,0,0-.021c0-.005,0-.01,0-.016a.019.019,0,0,1,0-.006c0-.007,0-.015,0-.022s0-.015,0-.023l0-.024L19.6,4a0,0,0,0,1,0,0l0,0c0-.006,0-.013-.005-.019l-.01-.03-.012-.031-.01-.023,0-.005,0-.005c-.005-.012-.011-.024-.018-.035s-.014-.026-.021-.039L19.5,3.79,19.5,3.775l-.013-.021c-.011-.016-.024-.032-.036-.048l-.022-.029L19.42,3.67l-.036-.041L19.358,3.6l-.01-.01,0,0-.009-.009-.022-.02-.022-.019-.022-.018-.016-.012h0l0,0-.022-.016L19.2,3.474l-.022-.014-.021-.013-.009-.005h0l-.011-.006-.021-.012L19.1,3.412l-.022-.01-.022-.009-.009,0L11.667.586l-.025-.01L11.6.563,11.559.551,11.516.54,11.478.533h-.007L11.422.525l-.052,0H11.3a.405.405,0,0,0-.118.018c-.014,0-.029.006-.043.011A.49.49,0,0,0,11.016.6a.418.418,0,0,0-.058.044L2.66,8.169h0v0h0a.59.59,0,0,0-.164.508l.165,1.863A1.481,1.481,0,0,0,3,11.307a1.7,1.7,0,0,0,.7.529l7.377,2.8a.356.356,0,0,0,.414-.058c-.008.01,5.509-4.986,8.276-7.494a.308.308,0,0,0,.024-.025l.017-.022,0,0v0l.009-.015a.1.1,0,0,0,.01-.02.142.142,0,0,0,.009-.019.068.068,0,0,0,0-.008v0l0-.009c0-.006,0-.012,0-.019s0-.013,0-.02,0-.012,0-.019a.046.046,0,0,1,0-.008s0,0,0,0a.039.039,0,0,0,0-.009.177.177,0,0,0,0-.02c0-.007,0-.013,0-.02S19.855,6.83,19.854,6.823ZM11.213,13.4h0a.486.486,0,0,1-.5.106L4.158,11.018c-.149-.06-.438-.141-.471-.385L3.6,9.653c-.018-.2.144-.4.337-.332l6.9,2.621a.36.36,0,0,0,.406-.05l7.129-6.458a1.622,1.622,0,0,0,.493,1.038Z" transform="translate(-2.491 -0.519)"/></g></g></svg>