<?xml version="1.0" encoding="UTF-8"?>
<!-- Generator: Adobe Illustrator 24.0.1, SVG Export Plug-In . SVG Version: 6.00 Build 0)  -->
<svg version="1.1" id="logo-disfruta" xmlns="http://www.w3.org/2000/svg" xmlns:xlink="http://www.w3.org/1999/xlink" x="0px" y="0px" viewBox="0 0 111.4 42" style="enable-background:new 0 0 111.4 42;" xml:space="preserve">
<style type="text/css">
	.st0{fill:#EE3224;}
</style>
<g>
	<g>
		<g>
			<path class="st0" d="M8.5,18.8C7.6,19.6,6.4,20,5,20H0.3v-14H5c1.5,0,2.7,0.5,3.5,1.3c1.4,1.4,1.4,3.6,1.4,5.5S9.9,17.4,8.5,18.8     z M7.7,8.1C6.9,7.3,5.8,7,4.7,7H1.4v12.1h3.4c1.1,0,2.2-0.3,3-1.1c1.1-1.1,1-3.6,1-5.2S8.8,9.2,7.7,8.1z"/>
			<path class="st0" d="M13.2,7.3V6.1h1.2v1.2H13.2z M13.3,20v-9.4h1V20H13.3z"/>
			<path class="st0" d="M21,20.2c-1.6,0-2.9-0.4-3.8-1.4l0.7-0.7c0.7,0.8,1.7,1.2,3.1,1.2c1.8,0,2.8-0.6,2.8-1.9     c0-1-0.6-1.5-1.8-1.6l-1.6-0.1c-1.9-0.2-2.8-1-2.8-2.5c0-1.6,1.3-2.7,3.4-2.7c1.3,0,2.5,0.4,3.3,1l-0.7,0.7     c-0.7-0.5-1.6-0.8-2.6-0.8c-1.5,0-2.4,0.7-2.4,1.8c0,1,0.6,1.5,1.9,1.6l1.5,0.1c1.6,0.1,2.8,0.6,2.8,2.5     C24.8,19.1,23.3,20.2,21,20.2z"/>
			<path class="st0" d="M29.1,11.3V20h-1v-8.7h-1.3v-0.7h1.3v-2c0-1.4,0.8-2.5,2.3-2.5h0.9V7h-0.7c-1,0-1.5,0.6-1.5,1.6v2.1h2.1v0.7     H29.1z"/>
			<path class="st0" d="M39.1,12.1c-0.6-0.6-1-0.7-1.8-0.7c-1.6,0-2.5,1.3-2.5,2.9V20h-1v-9.4h1v1.3c0.5-0.9,1.6-1.4,2.8-1.4     c0.9,0,1.6,0.2,2.3,0.9L39.1,12.1z"/>
			<path class="st0" d="M47.9,20v-1.1c-0.7,0.8-1.6,1.2-2.8,1.2c-1.1,0-1.9-0.3-2.5-0.9c-0.6-0.6-1-1.5-1-2.6v-6h1v5.9     c0,1.8,0.9,2.8,2.6,2.8c1.7,0,2.7-1,2.7-2.8v-5.9h1V20H47.9z"/>
			<path class="st0" d="M55.3,20c-1.5,0-2.3-1-2.3-2.5v-6.2h-1.3v-0.7H53v-3h1v3h2.1v0.7H54v6.3c0,1,0.5,1.6,1.5,1.6h0.7V20H55.3z"/>
			<path class="st0" d="M64.5,20v-0.9c-0.8,0.8-1.5,1.1-2.9,1.1c-1.4,0-2.2-0.2-2.8-0.9c-0.4-0.5-0.7-1.1-0.7-1.8     c0-1.7,1.2-2.7,3.3-2.7h3.1v-1.1c0-1.5-0.7-2.3-2.7-2.3c-1.3,0-2,0.3-2.6,1.2l-0.7-0.6c0.8-1.1,1.8-1.5,3.3-1.5     c2.5,0,3.7,1.1,3.7,3.1V20H64.5z M64.5,15.5h-2.9c-1.6,0-2.4,0.6-2.4,1.9c0,1.3,0.8,1.8,2.5,1.8c0.9,0,1.7-0.1,2.4-0.7     c0.4-0.3,0.5-0.9,0.5-1.8V15.5z"/>
		</g>
		<g>
			<path class="st0" d="M92.5,6.8c0-0.7-0.6-1.2-1.2-1.2c-0.7,0-1.2,0.6-1.2,1.2S90.6,8,91.3,8C92,8,92.5,7.4,92.5,6.8z"/>
			<path class="st0" d="M105,3.5L82.4,0c-0.3,0-0.6,0-0.9,0.2l-6.8,5.4c-0.5,0.4-0.6,1-0.2,1.5l0.7,1.1c-1.1,1.4-3.2,4.4-3,6.8     c0.1,0.9,0.5,1.7,1.2,2.2c0.6,0.5,1.2,0.7,1.9,0.7c0.2,0,0.3,0,0.5,0c1.5-0.2,3.1-1.5,4.2-2.8c0.1,0,0.1,0,0.2,0.1l22.4,3.3     c0.6,0.1,1.2-0.3,1.3-0.9l2-12.8C106,4.2,105.6,3.6,105,3.5z M82.5,8.5l-2.4,3l0,0c-0.1,0.2-0.2,0.3-0.3,0.5l-1.1,1.4     c-1,1.1-2.2,2.1-3.1,2.3c-0.3,0-0.5,0-0.7-0.2c-0.1-0.1-0.3-0.3-0.3-0.6c-0.1-1.2,1-3.1,2.1-4.5l1.3,1.9c1-1.5,2.5-3.3,2.5-3.3     l0,0c-0.5-0.3-0.9-0.9-0.9-1.5c0-1,0.8-1.8,1.8-1.8c1,0,1.8,0.8,1.8,1.8C83,7.8,82.8,8.2,82.5,8.5z M88.8,6.8     c0-1.4,1.1-2.5,2.5-2.5c1.4,0,2.5,1.1,2.5,2.5c0,1.4-1.1,2.5-2.5,2.5C89.9,9.2,88.8,8.1,88.8,6.8z M89.8,13.7l7.6-8.5L98.3,6     l-7.6,8.5L89.8,13.7z M96.7,15.4c-1.4,0-2.5-1.1-2.5-2.5c0-1.4,1.1-2.5,2.5-2.5c1.4,0,2.5,1.1,2.5,2.5     C99.1,14.3,98,15.4,96.7,15.4z"/>
			<path class="st0" d="M96.7,11.7c-0.7,0-1.2,0.6-1.2,1.2s0.6,1.2,1.2,1.2c0.7,0,1.2-0.6,1.2-1.2S97.3,11.7,96.7,11.7z"/>
		</g>
	</g>
	<g>
		<path class="st0" d="M7.6,34.9H4v6.9H0.4V23.4h7.1c3.8,0,6.1,2.6,6.1,5.8C13.7,32.3,11.4,34.9,7.6,34.9z M7.4,26.6H4v5.1h3.4    c1.6,0,2.7-1,2.7-2.5C10.1,27.6,9,26.6,7.4,26.6z"/>
		<path class="st0" d="M23.8,32c-0.5-0.5-1-0.8-1.8-0.8c-1,0-2.2,0.8-2.2,2.5v8.1h-3.4V28.3h3.3v1.3c0.6-0.8,1.9-1.5,3.4-1.5    c1.3,0,2.3,0.3,3.2,1.3L23.8,32z"/>
		<path class="st0" d="M36.8,40.3c-0.9,0.9-2.2,1.7-4.2,1.7c-2,0-3.3-0.8-4.2-1.7c-1.2-1.3-1.5-2.8-1.5-5.3c0-2.4,0.3-3.9,1.5-5.2    c0.9-0.9,2.2-1.7,4.2-1.7c2,0,3.3,0.8,4.2,1.7c1.2,1.3,1.5,2.8,1.5,5.2C38.3,37.5,38,39.1,36.8,40.3z M34.2,31.8    c-0.4-0.4-0.9-0.6-1.6-0.6c-0.6,0-1.2,0.2-1.6,0.6c-0.7,0.7-0.8,1.9-0.8,3.3c0,1.4,0.1,2.6,0.8,3.3c0.4,0.4,0.9,0.6,1.6,0.6    c0.7,0,1.2-0.2,1.6-0.6c0.7-0.7,0.8-1.9,0.8-3.3C34.9,33.7,34.9,32.5,34.2,31.8z"/>
		<path class="st0" d="M45.3,31.3v10.5h-3.4V31.3h-1.4v-2.6h1.4V27c0-1.9,1.2-3.9,3.9-3.9h1.9V26h-1.3c-0.8,0-1.2,0.4-1.2,1.2v1.5    h2.5v2.6H45.3z"/>
		<path class="st0" d="M58.1,41.8v-1.2C57.3,41.5,56,42,54.8,42c-1.3,0-2.4-0.4-3.2-1.2c-1.1-1.1-1.4-2.4-1.4-3.8v-8.6h3.4v8.2    c0,1.8,1.2,2.5,2.2,2.5s2.3-0.6,2.3-2.5v-8.2h3.4v13.5H58.1z"/>
		<path class="st0" d="M69.4,41.8c-2.7,0-3.9-1.9-3.9-3.9v-6.7h-1.4v-2.6h1.4v-4h3.4v4h2.4v2.6h-2.4v6.5c0,0.8,0.4,1.2,1.2,1.2h1.2    v2.8H69.4z"/>
		<path class="st0" d="M82.1,41.8v-1.2C81.2,41.5,80,42,78.7,42c-1.3,0-2.4-0.4-3.2-1.2c-1.1-1.1-1.4-2.4-1.4-3.8v-8.6h3.4v8.2    c0,1.8,1.2,2.5,2.2,2.5s2.3-0.6,2.3-2.5v-8.2h3.4v13.5H82.1z"/>
		<path class="st0" d="M96.5,32c-0.5-0.5-1-0.8-1.8-0.8c-1,0-2.2,0.8-2.2,2.5v8.1h-3.4V28.3h3.3v1.3c0.6-0.8,1.9-1.5,3.4-1.5    c1.3,0,2.3,0.3,3.2,1.3L96.5,32z"/>
		<path class="st0" d="M109.5,40.3c-0.9,0.9-2.2,1.7-4.2,1.7s-3.3-0.8-4.2-1.7c-1.2-1.3-1.5-2.8-1.5-5.3c0-2.4,0.3-3.9,1.5-5.2    c0.9-0.9,2.2-1.7,4.2-1.7s3.3,0.8,4.2,1.7c1.2,1.3,1.5,2.8,1.5,5.2C111,37.5,110.7,39.1,109.5,40.3z M106.9,31.8    c-0.4-0.4-0.9-0.6-1.6-0.6c-0.6,0-1.2,0.2-1.6,0.6c-0.7,0.7-0.8,1.9-0.8,3.3c0,1.4,0.1,2.6,0.8,3.3c0.4,0.4,0.9,0.6,1.6,0.6    c0.7,0,1.2-0.2,1.6-0.6c0.7-0.7,0.8-1.9,0.8-3.3C107.7,33.7,107.6,32.5,106.9,31.8z"/>
	</g>
</g>
</svg>