<svg xmlns="http://www.w3.org/2000/svg" viewBox="0 0 14 17.7">
	<path d="M7 0a6.752 6.752 0 0 0-7 6.6C0 11.1 6.3 17 6.5 17.2l.5.5.5-.4C7.7 17 14 11.2 14 6.6A6.815 6.815 0 0 0 7 0zm0 15.9a23.108 23.108 0 0 1-2.6-3c-2-2.5-3-4.7-3-6.4a5.5 5.5 0 0 1 5.7-5.3 5.5 5.5 0 0 1 5.7 5.3c-.1 3.5-4.4 8-5.8 9.4zM7 2.7a3.7 3.7 0 0 0-3.8 3.6A3.7 3.7 0 0 0 7 9.9a3.7 3.7 0 0 0 3.8-3.6A3.7 3.7 0 0 0 7 2.7zm0 6a2.547 2.547 0 0 1-2.6-2.4A2.547 2.547 0 0 1 7 3.9a2.547 2.547 0 0 1 2.6 2.4A2.547 2.547 0 0 1 7 8.7z" fill="#757575"/>
</svg>
