<svg xmlns="http://www.w3.org/2000/svg" viewBox="0 0 38.5 26.921"><defs><style>.a{fill:#757575;}</style></defs><path class="a" d="M19.169,26.922c-2.641-.085-5.878-.128-9.073-.256-1.7-.085-3.408-.213-5.069-.426A4.852,4.852,0,0,1,.639,21.98,49.738,49.738,0,0,1,0,13.29,55.673,55.673,0,0,1,.341,6.773,20.67,20.67,0,0,1,.724,4.43,4.848,4.848,0,0,1,4.856.639C6.6.426,8.392.256,10.181.213,13.163.085,16.144.043,19.126,0c2.3,0,4.558.043,6.858.128q2.428.064,4.856.256a21.069,21.069,0,0,1,3.237.426,4.662,4.662,0,0,1,3.749,3.919,30.29,30.29,0,0,1,.554,4.813,58.384,58.384,0,0,1,.043,6.688,32.282,32.282,0,0,1-.724,6.39,4.759,4.759,0,0,1-4.089,3.663,54.436,54.436,0,0,1-6.432.469C24.664,26.836,22.236,26.836,19.169,26.922Zm-3.791-7.71c3.365-1.917,6.645-3.834,10.01-5.751-3.365-1.959-6.645-3.876-10.01-5.793Z" transform="translate(0 0)"/></svg>