<svg xmlns="http://www.w3.org/2000/svg" viewBox="0 0 16.5 16.8">
  <path fill="#757575" d="M5.2 14H2.8c-.6 0-.9-.3-1.1-.9-.1-.5-.3-1-.4-1.4L.1 7.8c-.1-.3-.1-.6.1-.9.1-.1.2-.3.3-.5.2-.5.6-.9 1.1-1 .1 0 .1-.1.2-.1.2-.1.3-.4.4-.6.3-.6.8-1 1.5-1.1.9-.2 1.7 0 2.4.6.1.1.2.1.2.1.7.1 1.2.4 1.6 1l.1.1c.5.1.9.3 1.2.6.3 0 .4.3.5.5l.3.3c.3.3.4.6.3 1-.6 1.7-1.1 3.5-1.6 5.2 0 .1 0 .2-.1.2-.1.5-.5.8-1 .8H5.2zm1.3-3.7v3c0 .1 0 .2-.1.1H4.3c-.1 0-.1 0-.1-.1v-.1-5.9c0-.2 0-.2-.2-.2H2.3c-.4 0-.5.2-.4.6.4 1.4.9 2.9 1.3 4.3.1.4.3.8.4 1.2.1.3.2.3.5.3h2.3c.4 0 .5 0 .6-.5.5-1.8 1-3.6 1.6-5.4.1-.2-.1-.5-.4-.5H6.6c-.2 0-.2 0-.2.2.1 1 .1 2 .1 3zM1 6.6h8.1c-.1-.2-.2-.3-.3-.4-.2-.3-.4-.4-.7-.4h-.4c-.1 0-.1 0-.1-.1-.1-.2-.2-.3-.3-.4-.2-.4-.6-.6-1.1-.6-.2 0-.4-.1-.5-.2-.7-.7-1.8-.7-2.5-.1-.3.2-.5.6-.5 1l-.1.1c-.3 0-.4.1-.5.3l-.1.1c-.4.1-.6.2-.8.4-.1.1-.1.2-.2.3zM13.8 14h-1c-.4 0-.7-.2-.8-.7-.1-.8-.1-1.5-.2-2.3-.1-.8-.2-1.7-.2-2.5 0-.1 0-.2-.1-.2-.2-.1-.3-.3-.3-.5v-.5c0-.4.3-.6.7-.7H13c.1 0 .2 0 .2-.2V4.7c0-.4.3-.8.8-.8h1.9c.4 0 .7.3.8.7 0 .4-.2.8-.5.9h-1.1c-.1 0-.2 0-.1.2v.8c0 .1 0 .2.2.2h.9c.5 0 .8.3.8.8v.4c0 .2-.2.4-.3.5l-.1.1c0 .3-.1.7-.1 1 0 .4-.1.9-.1 1.3s-.1.8-.1 1.2c0 .5-.1.9-.1 1.4 0 .3-.3.6-.6.6h-1.7zm0-.6h1c.2 0 .2-.1.2-.2.1-.5.1-1.1.2-1.6 0-.5.1-1 .1-1.5 0-.6.1-1.1.2-1.7 0-.2 0-.2-.2-.2h-3c-.3 0-.3 0-.2.2.1.8.2 1.6.2 2.4.1.8.1 1.5.2 2.3 0 .2.1.2.3.2.3.1.6.1 1 .1zm0-5.6h1.8c.3 0 .4 0 .4-.3v-.1c0-.2-.1-.3-.3-.3H12h-.1c-.1 0-.2.1-.2.2v.3c0 .2.1.2.2.2h1.9zm1-3.4h-.9c-.2 0-.3.1-.3.3v1.5c0 .4 0 .4.4.4.1 0 .2 0 .2-.2V5.2c0-.3 0-.3.3-.3h1.3c.2 0 .3-.1.3-.3 0-.2-.1-.3-.3-.3-.4.1-.7.1-1 .1z"/>
</svg>
