<svg xmlns="http://www.w3.org/2000/svg" viewBox="0 0 43.444 40"><g fill="#917f4d"><path d="M39.274 19.088V10.01c0-.018.009-.035.009-.054a.966.966 0 0 0-.547-.871L20.064.096a.968.968 0 0 0-.838 0L.549 9.066a.1.1 0 0 0-.049.042c-.015.009-.032.013-.047.022a.966.966 0 0 0-.452.818v20.095a.965.965 0 0 0 .547.87l18.67 8.991a.923.923 0 0 0 .826 0s.009.007.013 0l10.1-4.864a9.2 9.2 0 0 0 9.116-15.954zM19.649 2.043l16.433 7.912-6.943 3.337-9.5 4.563-3.517-1.693 8.5-4.1a.966.966 0 0 0 0-1.741l-7.634-3.668a.962.962 0 0 0-.839 0l-9.857 4.775-3.1-1.49zM7.261 14.053l5.67 2.731v7.074l-2.413-3.264a.965.965 0 0 0-1.25-.268L7.26 21.452v-7.4zm1.255-1.554l8.057-3.9 5.4 2.593-8.075 3.9zm-6.584-1.012l3.4 1.636v9.978a.966.966 0 0 0 1.439.843l2.7-1.516 3.651 4.936a.966.966 0 0 0 .777.392.956.956 0 0 0 .3-.05.965.965 0 0 0 .663-.917v-9.075l3.809 1.829v17.953L1.932 29.437zm18.671 26.009V19.543l9.767-4.7 6.971-3.348v6.632a9.188 9.188 0 0 0-12.324 8.662c0 .1.012.2.015.3l-1.879.9a.967.967 0 1 0 .838 1.742l1.329-.64a9.194 9.194 0 0 0 .507 1.454l-2.678 1.298a.967.967 0 0 0 .42 1.837.946.946 0 0 0 .419-.1l2.815-1.356a9.211 9.211 0 0 0 1.465 1.58zm13.627-3.425a7.281 7.281 0 1 1 7.281-7.281 7.29 7.29 0 0 1-7.281 7.281z"/><path d="M37.178 23.678l-3.671 4.177-1.47-1.451a.96628477.96628477 0 0 0-1.357 1.376l2.2 2.17a.965.965 0 0 0 .679.278h.034a.968.968 0 0 0 .691-.328l4.348-4.945a.967.967 0 0 0-1.452-1.276z"/></g></svg>
