<svg id="icon-entretenimiento" xmlns="http://www.w3.org/2000/svg" viewBox="0 0 17.74 16.743"><defs><style>.a-icon-entretenimiento{fill:#fff;}</style></defs><g transform="translate(-18.188 -20)"><g transform="translate(18.187 20)"><path class="a-icon-entretenimiento" d="M27.556,20A8.371,8.371,0,0,0,23.5,35.7H18.187v1.046h9.369a8.371,8.371,0,1,0,0-16.743ZM25.768,33.064a1.962,1.962,0,1,1,0-2.775A1.962,1.962,0,0,1,25.768,33.064Zm0-6.611a1.962,1.962,0,1,1,0-2.775A1.962,1.962,0,0,1,25.768,26.453Zm1.789,2.955A1.037,1.037,0,1,1,28.6,28.371,1.041,1.041,0,0,1,27.556,29.408Zm4.822,3.656a1.962,1.962,0,1,1,0-2.775A1.962,1.962,0,0,1,32.379,33.064Zm0-6.611a1.962,1.962,0,1,1,0-2.775A1.962,1.962,0,0,1,32.379,26.453Z" transform="translate(-18.187 -20)"/></g></g></svg>