<svg xmlns="http://www.w3.org/2000/svg" viewBox="0 0 20 16.01"><defs><style>.a-icon-vida{fill:#fff;}</style></defs><g transform="translate(-541.831 -398.991)"><g transform="translate(549.186 402.218)"><path class="a-icon-vida" d="M44.429,35.216c0-1.368-.632-3-2-3a3.463,3.463,0,0,0-3,3c0,1.368,1.632,2,3,2a1.741,1.741,0,0,0,2-2Z" transform="translate(-39.784 -32.434)"/></g><g transform="translate(541.831 399)"><path class="a-icon-vida" d="M27.831,33.766h-3c-.678,0-2,.322-2,1s1.322,1,2,1h5a.876.876,0,0,0,1-1c0-.509-.525-.818-1-1a21.62,21.62,0,0,0-2-1c.2-1.572-.04-3.416,0-5,0-.058,0,.059,0,0-.215-4.605-3.4-8.215-8-8-.087,0-.914-.007-1,0a1,1,0,0,0,0,2,6.085,6.085,0,0,1,6,3c.009.018,0-.02,0,0,.027.12.12.972,0,1-.544.124-.655.562-1,1-1.8,2.286-4.475,3.55-7,5-.5.288-.287,1.5,0,2s.5.288,1,0a27.662,27.662,0,0,0,5-4c-.07.86.122,2.146,0,3-1.057.249-1.919-.1-3,0-.405.265-1.58.759-2,1-.068.039.074-.026,0,0-.669.235-.766.669-1,0h-5a1,1,0,0,0,0,2h7c1.562-.057,2.476-.654,4-1-.091-.194,0,.214,0,0a2.545,2.545,0,0,1,2-2" transform="translate(-10.831 -19.766)"/></g></g></svg>