<svg id="icon-mouse"xmlns="http://www.w3.org/2000/svg" viewBox="0 0 18.885 41"><defs><style>.a-icon-mouse{fill:#757575;stroke:#707070;fill-rule:evenodd;}</style></defs><g transform="translate(-27.5 -0.5)"><g transform="translate(28 1)"><path class="a-icon-mouse" d="M29.626,9.944h0V20.509a7.317,7.317,0,1,0,14.633,0V9.944a7.317,7.317,0,1,0-14.633,0ZM28,9.944a8.942,8.942,0,1,1,17.885,0V20.509a8.942,8.942,0,1,1-17.885,0V9.944Z" transform="translate(-28 -1)"/><path class="a-icon-mouse" d="M48,15.816a.813.813,0,1,1,1.626,0v3.245a.813.813,0,1,1-1.626,0Z" transform="translate(-39.871 -9.309)"/><path class="a-icon-mouse" d="M39.165,85.423l6.013-6.013a.813.813,0,1,1,1.15,1.15L39.74,87.148a.813.813,0,0,1-1.15,0L31.984,80.54a.813.813,0,1,1,1.15-1.15Z" transform="translate(-30.223 -47.386)"/></g></g></svg>