<svg xmlns="http://www.w3.org/2000/svg" width="28" height="28" viewBox="0 0 28 28"><g transform="translate(-227.271 -758.976)"><path d="M2993.94,4572.13V4558.46c.045-.286.075-.576.139-.858a7.627,7.627,0,0,1,5.765-6.076c.408-.113.837-.154,1.256-.229h13.664c.088.017.176.039.265.048a6.893,6.893,0,0,1,2.208.582,7.544,7.544,0,0,1,4.673,7.133c.058,4.155.017,8.311.012,12.466a7.455,7.455,0,0,1-1.37,4.416,7.607,7.607,0,0,1-6.5,3.348q-6.121.017-12.242,0a7.405,7.405,0,0,1-1.574-.142,7.6,7.6,0,0,1-6.065-5.757C2994.056,4572.979,2994.015,4572.55,2993.94,4572.13Zm25.5-6.83q0-3.034,0-6.069a5.576,5.576,0,0,0-.28-1.88,5.237,5.237,0,0,0-5.126-3.57c-4.071,0-8.142-.013-12.212.011a5.9,5.9,0,0,0-1.821.281,5.177,5.177,0,0,0-3.579,5.109q-.009,6.109,0,12.218a5.451,5.451,0,0,0,.285,1.853,5.222,5.222,0,0,0,5.08,3.556q6.147.015,12.294,0a5.175,5.175,0,0,0,4.4-2.229,5.252,5.252,0,0,0,.965-3.185Q3019.439,4568.347,3019.442,4565.3Z" transform="translate(-2766.67 -3792.321)" fill="#757575"/><path d="M3132.843,4682.788a7.426,7.426,0,1,1-7.429-7.436A7.46,7.46,0,0,1,3132.843,4682.788Zm-7.431,4.864a4.868,4.868,0,1,0-4.859-4.874A4.873,4.873,0,0,0,3125.412,4687.652Z" transform="translate(-2884.156 -3909.809)" fill="#757575"/><path d="M3355.885,4637.024a1.755,1.755,0,1,1-1.8,1.728A1.765,1.765,0,0,1,3355.885,4637.024Z" transform="translate(-3107.035 -3873.338)" fill="#757575"/></g></svg>