<svg xmlns="http://www.w3.org/2000/svg" viewBox="0 0 16.5 16.075">
  <path d="M14.1 2.375a.472.472 0 0 0-.5-.5h-2.1a1.135 1.135 0 0 1-.8-.3l-2-1.5a1.1 1.1 0 0 0-.8 0l-2 1.5a1.727 1.727 0 0 1-.4.3H2.7a.472.472 0 0 0-.5.5v1.5a1.234 1.234 0 0 1-.4.8l-1.4 1.2a1.012 1.012 0 0 0-.4.7v9a.472.472 0 0 0 .5.5l15.5-.1a.472.472 0 0 0 .5-.5v-9a1.235 1.235 0 0 0-.4-.8l-1.6-1.3a1.234 1.234 0 0 1-.4-.8zm-12.6 4.2a.375.375 0 0 1 0-.6l.5-.4c.2-.2.4-.1.4.2v.6c0 .3-.2.4-.4.2zm1.6-1.4v-2.1a.472.472 0 0 1 .5-.5h9.1a.472.472 0 0 1 .5.5v3.8a.842.842 0 0 1-.4.7l-4.2 2.3a1.1 1.1 0 0 1-.8 0l-4.3-2.3a.842.842 0 0 1-.4-.7zm11 .6c0-.3.2-.3.4-.2l.5.4c.2.2.2.4 0 .5l-.5.3c-.2.1-.4 0-.4-.2zm-6.2-4.7a.854.854 0 0 1 .7 0l.7.5c.2.2.2.3-.1.3H7.3c-.2 0-.3-.1-.1-.3zm-6.6 14.1a.472.472 0 0 1-.5-.5v-7.2c0-.3.2-.4.4-.2l6.6 3.6a1.1 1.1 0 0 0 .8 0l6.6-3.6c.2-.1.4 0 .4.2v7.2a.472.472 0 0 1-.5.5z" fill="#757575"/>
</svg>
