<svg id="profuturo-premium" xmlns="http://www.w3.org/2000/svg" viewBox="0 0 253.608 46.551"><defs><style>.a-premium{fill:#917f4d;}</style></defs><g transform="translate(0 0)"><path class="a-premium" d="M7.33,26.71H3.692v6.95H0V15.2H7.33c3.909,0,6.244,2.606,6.244,5.755S11.239,26.71,7.33,26.71M7.113,18.4H3.692v5.049H7.113a2.43,2.43,0,0,0,2.715-2.5A2.442,2.442,0,0,0,7.113,18.4" transform="translate(0 -6.931)"/><path class="a-premium" d="M36.693,27.855a2.315,2.315,0,0,0-4.072,1.683v8.144H29.2V24.163h3.366v1.3A4.818,4.818,0,0,1,36.041,24,4.178,4.178,0,0,1,39.3,25.249Z" transform="translate(-13.346 -10.953)"/><path class="a-premium" d="M57.953,36.216A5.83,5.83,0,0,1,53.664,37.9a5.626,5.626,0,0,1-4.289-1.683c-1.249-1.3-1.575-2.823-1.575-5.267s.326-3.963,1.575-5.267A5.83,5.83,0,0,1,53.664,24a5.716,5.716,0,0,1,4.289,1.683c1.249,1.249,1.575,2.823,1.575,5.267s-.326,3.963-1.575,5.267m-2.66-8.578a2.216,2.216,0,0,0-1.629-.6,2.307,2.307,0,0,0-1.629.6c-.706.706-.76,1.846-.76,3.258s.054,2.606.76,3.312a2.216,2.216,0,0,0,1.629.6,2.307,2.307,0,0,0,1.629-.6c.706-.706.814-1.9.814-3.312-.054-1.412-.109-2.552-.814-3.258" transform="translate(-21.847 -10.953)"/><path class="a-premium" d="M77.486,22.89V33.477H74.012V22.89H72.6V20.338h1.412V18.655A3.741,3.741,0,0,1,78.029,14.8h1.955v2.823H78.627a1.063,1.063,0,0,0-1.194,1.194v1.52h2.552V22.89Z" transform="translate(-33.182 -6.748)"/><path class="a-premium" d="M97.944,37.819V36.625a4.885,4.885,0,0,1-3.475,1.412,4.521,4.521,0,0,1-3.258-1.194A5.024,5.024,0,0,1,89.8,32.987V24.3h3.421v8.144a2.223,2.223,0,0,0,2.28,2.5,2.26,2.26,0,0,0,2.335-2.5V24.3h3.421V37.819H97.944Z" transform="translate(-41.044 -11.091)"/><path class="a-premium" d="M120.484,34.8a3.711,3.711,0,0,1-4.018-3.855V24.215H115V21.663h1.466V17.7h3.475v3.963h2.443v2.552h-2.443v6.515a1.1,1.1,0,0,0,1.194,1.249h1.249v2.878h-1.9Z" transform="translate(-52.562 -8.074)"/><path class="a-premium" d="M141.144,37.819V36.625a4.885,4.885,0,0,1-3.475,1.412,4.521,4.521,0,0,1-3.258-1.194A4.833,4.833,0,0,1,133,32.987V24.3h3.475v8.144a2.223,2.223,0,0,0,2.28,2.5,2.26,2.26,0,0,0,2.335-2.5V24.3h3.421V37.819h-3.366Z" transform="translate(-60.789 -11.091)"/><path class="a-premium" d="M167.847,27.855a2.315,2.315,0,0,0-4.072,1.683v8.144H160.3V24.163h3.366v1.3A4.818,4.818,0,0,1,167.141,24a4.253,4.253,0,0,1,3.258,1.249Z" transform="translate(-73.267 -10.953)"/><path class="a-premium" d="M189.153,36.216a5.928,5.928,0,0,1-4.289,1.683,5.626,5.626,0,0,1-4.289-1.683c-1.249-1.3-1.575-2.823-1.575-5.267s.326-3.963,1.575-5.267A5.83,5.83,0,0,1,184.864,24a5.538,5.538,0,0,1,4.289,1.683c1.249,1.249,1.575,2.823,1.575,5.267s-.326,3.963-1.575,5.267m-2.66-8.578a2.216,2.216,0,0,0-1.629-.6,2.085,2.085,0,0,0-1.575.6c-.706.706-.814,1.846-.814,3.258s.054,2.606.814,3.312a2.172,2.172,0,0,0,1.575.6,2.306,2.306,0,0,0,1.629-.6c.706-.706.814-1.9.814-3.312-.054-1.412-.109-2.552-.814-3.258" transform="translate(-81.814 -10.953)"/><path class="a-premium" d="M190.869,7.849c-.109,0-.109.054-.109.109s0,.109.109.109c9.176.38,12.922,4.886,10.262,13.465-2.715,8.8-11.4,19.654-23.618,27.853-.271.217.054.6.217.543,15.2-8.741,27.69-20.686,30.622-30.133C211.175,10.347,203.845,6,190.869,7.849" transform="translate(-81.086 -3.381)"/><path class="a-premium" d="M229.215.584c-.054-.054-.163-.217-.054-.271,2.5-.326,5.809-.814,6.678.706s-.814,8.09-3.149,4.669c-2.443-3.529-2.932-4.4-3.475-5.1" transform="translate(-104.719 0.03)"/><g transform="translate(48.81 28.846)"><path class="a-premium" d="M155.937,59.8c0,.814.489,1.3,1.032,1.3.489,0,.923-.489.923-1.249,0-.706-.434-1.249-.923-1.249-.706,0-1.032.489-1.032,1.194m3.583-2.389v4.778h-1.629v-.434a2.413,2.413,0,1,1-1.466-4.452,1.909,1.909,0,0,1,1.52.543v-.434Z" transform="translate(-119.289 -55.02)"/><path class="a-premium" d="M110.578,61.155a1.181,1.181,0,0,0,1.032-1.3c0-.706-.326-1.357-1.032-1.357-.814,0-1.14.6-1.14,1.357a1.158,1.158,0,0,0,1.14,1.3m0,1.14c-1.737,0-2.878-.977-2.878-2.5a2.66,2.66,0,0,1,2.878-2.5,2.561,2.561,0,0,1,2.769,2.5,2.591,2.591,0,0,1-2.769,2.5" transform="translate(-98.036 -55.02)"/><path class="a-premium" d="M146.683,58.244c0-.652-.326-1.249-.923-1.249s-1.032.489-1.032,1.249c0,.706.326,1.194,1.032,1.194.543,0,.923-.434.923-1.194M143.1,60.632V53.9h1.629v2.28a2.6,2.6,0,0,1,1.52-.434,2.26,2.26,0,0,1,2.226,2.443c0,1.737-1.032,2.606-2.226,2.606a2.2,2.2,0,0,1-1.52-.489l-.109.38H143.1Z" transform="translate(-114.216 -53.466)"/><rect class="a-premium" width="1.737" height="4.778" transform="translate(19.817 2.389)"/><path class="a-premium" d="M127.323,53.1a.855.855,0,0,0-.923.923.926.926,0,0,0,.923.977,1.046,1.046,0,0,0,.923-.977.915.915,0,0,0-.923-.923" transform="translate(-106.583 -53.1)"/><path class="a-premium" d="M166.1,62.186h1.629V59.743c0-.6.326-.977.814-.977a.872.872,0,0,1,.923.977v2.443H171.1V59.309A1.923,1.923,0,0,0,169.14,57.3a1.886,1.886,0,0,0-1.52.652l-.109-.543H166.1v4.778" transform="translate(-124.728 -55.02)"/><path class="a-premium" d="M177.2,60.632h1.629V58.461l1.52,2.172H182.2l-1.737-2.5,1.737-2.28h-1.846l-1.52,2.009V53.9H177.2Z" transform="translate(-129.801 -53.466)"/><path class="a-premium" d="M103.8,57.517a3.335,3.335,0,0,0-1.249-.217A2.38,2.38,0,0,0,100,59.8a2.409,2.409,0,0,0,2.552,2.5,7.681,7.681,0,0,0,1.249-.163l-.109-1.412a2.139,2.139,0,0,1-.814.217,1.055,1.055,0,0,1-1.14-1.14,1.083,1.083,0,0,1,1.14-1.14,1.432,1.432,0,0,1,.814.271l.109-1.412" transform="translate(-94.516 -55.02)"/><path class="a-premium" d="M132.746,59.8c0,.814.489,1.3,1.032,1.3.489,0,.923-.489.923-1.249,0-.706-.326-1.249-.923-1.249-.652,0-1.032.489-1.032,1.194m3.692-2.389v4.778H134.7v-.434a2.242,2.242,0,0,1-1.629.543,2.515,2.515,0,0,1,.109-5,1.909,1.909,0,0,1,1.52.543v-.434Z" transform="translate(-108.639 -55.02)"/><path class="a-premium" d="M89.9,60.752a17.869,17.869,0,0,0,1.955.217c1.412,0,2.878-.489,2.878-2.063,0-2.117-2.986-1.846-2.986-2.715,0-.434.489-.489.923-.489a4.584,4.584,0,0,1,1.52.38l.217-1.466a5.861,5.861,0,0,0-1.737-.217c-1.412,0-2.769.489-2.769,1.955,0,2.063,2.878,1.629,2.878,2.769,0,.38-.326.543-.923.543a5.149,5.149,0,0,1-1.737-.434l-.217,1.52" transform="translate(-89.9 -53.694)"/><path class="a-premium" d="M122.038,59.7a1.453,1.453,0,0,1-.6.109c-.38,0-.706-.163-.706-.76V57.415h1.032V56.22h-1.032V54.7h-1.629v1.52H118.4v1.194h.706v1.955a1.549,1.549,0,0,0,1.737,1.737,4.305,4.305,0,0,0,.923-.109l.271-1.3" transform="translate(-102.926 -53.831)"/></g><path class="a-premium" d="M2.389,55.6,0,61.464H.76l.6-1.52h2.66l.6,1.52h.814L3.149,55.6Zm-.706,3.638,1.086-2.66L3.8,59.238Z" transform="translate(0 -25.396)"/><path class="a-premium" d="M10.6,61.464h.76V58.8h2.063V58.1H11.36V56.306h2.117V55.6H10.6Z" transform="translate(-4.845 -25.396)"/><path class="a-premium" d="M19.823,56.034a2.032,2.032,0,0,0-1.357-.434H17v5.809h.76V58.966h.652a2.751,2.751,0,0,0,.706-.109,1.294,1.294,0,0,0,.6-.326,1.241,1.241,0,0,0,.38-.543,1.734,1.734,0,0,0,.163-.76A1.109,1.109,0,0,0,19.823,56.034Zm-.38,1.792a1.843,1.843,0,0,1-.326.326,1.084,1.084,0,0,1-.489.109c-.217,0-.38.054-.6.054H17.76V56.306h.76a.943.943,0,0,1,1.032,1.032C19.552,57.555,19.552,57.717,19.443,57.826Z" transform="translate(-7.77 -25.396)"/><path class="a-premium" d="M30.34,57.189l-.217-.217a1.091,1.091,0,0,0-.434-.217,1.676,1.676,0,0,0-.6-.109,1.813,1.813,0,0,0-.814.163,1.188,1.188,0,0,0-.543.489,2.807,2.807,0,0,0-.326.706,3.529,3.529,0,0,0,0,1.737,1.683,1.683,0,0,0,.326.706,1.54,1.54,0,0,0,.543.489,1.734,1.734,0,0,0,.76.163,1.309,1.309,0,0,0,.814-.217,1.018,1.018,0,0,0,.38-.326v.434h.76V54.8h-.76v2.389Zm-.054,2.28c-.054.217-.109.38-.163.543a2.361,2.361,0,0,1-.326.38.876.876,0,0,1-.489.163.917.917,0,0,1-.543-.163.73.73,0,0,1-.326-.38.876.876,0,0,1-.163-.489,2.227,2.227,0,0,1-.054-.6,2.435,2.435,0,0,1,.054-.6,5.125,5.125,0,0,1,.163-.489c.054-.163.217-.271.326-.38a.917.917,0,0,1,.543-.163.664.664,0,0,1,.489.163.73.73,0,0,1,.326.38.917.917,0,0,1,.163.543,2.742,2.742,0,0,1,0,1.086Z" transform="translate(-12.478 -25.031)"/><path class="a-premium" d="M38.4,58.852a1.54,1.54,0,0,0-.543-.489,1.813,1.813,0,0,0-.814-.163,1.734,1.734,0,0,0-.76.163,1.7,1.7,0,0,0-.6.489,2.925,2.925,0,0,0-.38.706,4.781,4.781,0,0,0-.109.923,4.22,4.22,0,0,0,.109.869,1.421,1.421,0,0,0,.326.706,1.7,1.7,0,0,0,.6.489,2.34,2.34,0,0,0,.923.163,2.869,2.869,0,0,0,.652-.054c.217-.054.434-.109.6-.163h.054v-.814l-.163.109c-.054.054-.109.054-.217.109s-.163.054-.271.109a.689.689,0,0,1-.326.054,1.305,1.305,0,0,1-.814-.109.73.73,0,0,1-.38-.326,1.023,1.023,0,0,1-.217-.489,1.348,1.348,0,0,1-.054-.489h2.823v-.38a4.19,4.19,0,0,0-.109-.814A5.927,5.927,0,0,1,38.4,58.852ZM35.96,60.046c0-.109.054-.217.054-.326a1.091,1.091,0,0,1,.217-.434l.326-.326a.832.832,0,0,1,.869,0,.654.654,0,0,1,.271.271,3.741,3.741,0,0,1,.163.434.924.924,0,0,1,.054.38Z" transform="translate(-16.088 -26.585)"/><rect class="a-premium" width="0.76" height="6.244" transform="translate(23.292 29.769)"/><path class="a-premium" d="M52.186,58.58l-.109-.109c-.109-.054-.217-.163-.326-.163a.689.689,0,0,0-.326-.054c-.109,0-.271-.054-.38-.054a1.813,1.813,0,0,0-.814.163,1.7,1.7,0,0,0-.6.489,2.807,2.807,0,0,0-.326.706,4.22,4.22,0,0,0-.109.869,3.178,3.178,0,0,0,.109.706,1.683,1.683,0,0,0,.326.706,1.936,1.936,0,0,0,.6.543,1.48,1.48,0,0,0,.869.217,1.247,1.247,0,0,0,.76-.217.73.73,0,0,0,.38-.326,1.2,1.2,0,0,1-.054.434,1.446,1.446,0,0,1-.163.652,1.464,1.464,0,0,1-.38.434,1.358,1.358,0,0,1-.706.163,2.036,2.036,0,0,1-.6-.054,1.626,1.626,0,0,1-.543-.217l-.163-.109-.054.76h.109a3.462,3.462,0,0,0,.489.109,3.2,3.2,0,0,0,.76.109,2.163,2.163,0,0,0,.923-.163,1.482,1.482,0,0,0,.652-.489,1.421,1.421,0,0,0,.326-.706,4.191,4.191,0,0,0,.109-.814V58.309H52.24v.271Zm-.054,2.443a1.929,1.929,0,0,1-.217.489.73.73,0,0,1-.38.326.814.814,0,0,1-.543.109,1.585,1.585,0,0,1-.489-.109.936.936,0,0,1-.326-.326.876.876,0,0,1-.163-.489,2.036,2.036,0,0,1-.054-.6,2.435,2.435,0,0,1,.054-.6,1.341,1.341,0,0,1,.217-.489c.054-.163.217-.271.326-.38A.917.917,0,0,1,51.1,58.8a1.606,1.606,0,0,1,.543.109.922.922,0,0,1,.326.326,1.929,1.929,0,0,1,.217.489,2.644,2.644,0,0,1,.054.652C52.186,60.643,52.186,60.806,52.132,61.023Z" transform="translate(-22.487 -26.585)"/><path class="a-premium" d="M59.4,58.27a.747.747,0,0,0-.6.054,1.136,1.136,0,0,0-.326.217.542.542,0,0,0-.217.271v-.489H57.5v.163a.2.2,0,0,0,.054.163v4.018h.76V60.55a1.847,1.847,0,0,1,.054-.543,1.726,1.726,0,0,1,.163-.489,2.3,2.3,0,0,1,.271-.38.585.585,0,0,1,.434-.109H59.4a.2.2,0,0,1,.163.054l.163.054v-.76h-.109C59.563,58.27,59.509,58.27,59.4,58.27Z" transform="translate(-26.281 -26.6)"/><path class="a-premium" d="M65.766,62.046V58.3H65.06v2.389a1.5,1.5,0,0,1-.054.489,3.742,3.742,0,0,1-.163.434l-.326.326a.814.814,0,0,1-.543.109.74.74,0,0,1-.652-.271,1.378,1.378,0,0,1-.217-.869V58.3H62.4v2.715c0,.217.054.434.054.652a1.7,1.7,0,0,0,.271.543,1.182,1.182,0,0,0,.489.38,1.49,1.49,0,0,0,.706.109,1.952,1.952,0,0,0,.6-.109.875.875,0,0,0,.38-.217.542.542,0,0,0,.217-.271v.489h.706v-.109A1.058,1.058,0,0,1,65.766,62.046Z" transform="translate(-28.52 -26.631)"/><path class="a-premium" d="M73.412,58.852a1.54,1.54,0,0,0-.543-.489,1.813,1.813,0,0,0-.814-.163,1.952,1.952,0,0,0-.6.109,1.9,1.9,0,0,0-.434.271c-.054.054-.109.163-.163.217v-.489H70.1v6.027h.76V62.218l.326.326a1.378,1.378,0,0,0,.869.217,1.577,1.577,0,0,0,.76-.163,1.726,1.726,0,0,0,.923-1.194,3.463,3.463,0,0,0-.326-2.552Zm-.434,2.226a1.3,1.3,0,0,1-.163.489.73.73,0,0,1-.326.38.811.811,0,0,1-.543.163.758.758,0,0,1-.489-.163.73.73,0,0,1-.326-.38,1.626,1.626,0,0,1-.217-.543,2.741,2.741,0,0,1,0-1.086,1.626,1.626,0,0,1,.217-.543,2.362,2.362,0,0,1,.326-.38.758.758,0,0,1,.489-.163.917.917,0,0,1,.543.163.73.73,0,0,1,.326.38.876.876,0,0,1,.163.489,2.227,2.227,0,0,1,.054.6A2.434,2.434,0,0,1,72.978,61.078Z" transform="translate(-32.04 -26.585)"/><path class="a-premium" d="M81.418,59.612a1.879,1.879,0,0,0-1.032-1.194,2.311,2.311,0,0,0-.923-.217,1.664,1.664,0,0,0-.923.217,2.052,2.052,0,0,0-.652.489,2.926,2.926,0,0,0-.38.706,4.191,4.191,0,0,0-.109.814,4.752,4.752,0,0,0,.109.869,2.926,2.926,0,0,0,.38.706,1.482,1.482,0,0,0,.652.489,2.311,2.311,0,0,0,.923.217,1.785,1.785,0,0,0,.923-.217A1.482,1.482,0,0,0,81.038,62a2.925,2.925,0,0,0,.38-.706,2.251,2.251,0,0,0,.109-.869A4.191,4.191,0,0,0,81.418,59.612Zm-.76,1.52a1.05,1.05,0,0,1-.271.489.73.73,0,0,1-.38.326,1.268,1.268,0,0,1-1.086,0,2.362,2.362,0,0,1-.38-.326.976.976,0,0,1-.217-.489,2.643,2.643,0,0,1-.054-.652,2.726,2.726,0,0,1,.109-.652,1.023,1.023,0,0,1,.217-.489.73.73,0,0,1,.38-.326.893.893,0,0,1,.543-.109,1.606,1.606,0,0,1,.543.109c.163.054.271.217.38.326.109.163.163.326.271.489a2.434,2.434,0,0,1,.054.652A2.725,2.725,0,0,1,80.658,61.132Z" transform="translate(-35.376 -26.585)"/><g transform="translate(129.98 8.16)"><path class="a-premium" d="M248.521,15c2.172,1.9,3.04,4.886,2.172,8.9-1.194,5.429-5.321,11.89-11.293,18.243H363.028V15ZM275.94,32.971a3.693,3.693,0,0,1-2.5.923A2.923,2.923,0,0,1,271,32.863v4.615h-2.552v-13.9h2.443v.977a3.181,3.181,0,0,1,2.552-1.086,3.8,3.8,0,0,1,2.5.923c1.032,1.032,1.032,2.715,1.032,4.289C276.971,30.2,276.917,31.94,275.94,32.971Zm9.013-6.624a1.686,1.686,0,0,0-1.357-.6,1.748,1.748,0,0,0-1.683,1.9v6.135H279.36V23.578h2.5v.977a3.4,3.4,0,0,1,2.552-1.086,3.194,3.194,0,0,1,2.443.977Zm11.13,3.095h-6.407a2.123,2.123,0,0,0,2.226,2.28,2.843,2.843,0,0,0,2.335-.977l1.575,1.52a4.828,4.828,0,0,1-3.855,1.629c-2.389,0-4.724-1.086-4.724-5.212,0-3.312,1.792-5.212,4.452-5.212,2.823,0,4.452,2.063,4.452,4.886v1.086Zm16.777,4.344h-2.552V27.6a1.612,1.612,0,0,0-1.683-1.846,1.648,1.648,0,0,0-1.683,1.792v6.244h-2.606V27.6a1.612,1.612,0,0,0-1.683-1.846,1.64,1.64,0,0,0-1.683,1.846v6.19h-2.552V23.578h2.5V24.5a3.481,3.481,0,0,1,2.552-1.032,3.092,3.092,0,0,1,2.715,1.3,3.842,3.842,0,0,1,3.041-1.3,3.567,3.567,0,0,1,2.5.869,3.886,3.886,0,0,1,1.14,2.878Zm5.266,0h-2.552V23.578h2.552Zm-1.52-11.619a1.52,1.52,0,1,1,1.52-1.52A1.484,1.484,0,0,1,316.606,22.167Zm12.7,11.619h-2.5v-.923a3.482,3.482,0,0,1-2.552,1.032,3.106,3.106,0,0,1-2.389-.923,3.79,3.79,0,0,1-1.032-2.878V23.578h2.552v6.19a1.612,1.612,0,0,0,1.683,1.846,1.64,1.64,0,0,0,1.683-1.846v-6.19h2.552Zm17.266,0h-2.552V27.6a1.612,1.612,0,0,0-1.683-1.846,1.687,1.687,0,0,0-1.737,1.792v6.244h-2.552V27.6a1.612,1.612,0,0,0-1.683-1.846,1.64,1.64,0,0,0-1.683,1.846v6.19h-2.552V23.578h2.5V24.5a3.481,3.481,0,0,1,2.552-1.032,3.092,3.092,0,0,1,2.715,1.3,3.842,3.842,0,0,1,3.04-1.3,3.567,3.567,0,0,1,2.5.869,3.886,3.886,0,0,1,1.14,2.878Z" transform="translate(-239.4 -15)"/><path class="a-premium" d="M334,34.5a1.728,1.728,0,0,0-1.683,1.032,2.431,2.431,0,0,0-.217,1.086h3.855a2.153,2.153,0,0,0-.217-1.086A1.864,1.864,0,0,0,334,34.5Z" transform="translate(-281.769 -23.913)"/><path class="a-premium" d="M299.237,34.8c-1.52,0-1.737,1.249-1.737,2.932s.217,2.932,1.737,2.932,1.737-1.249,1.737-2.932S300.758,34.8,299.237,34.8Z" transform="translate(-265.955 -24.05)"/></g></g></svg>
