<svg id="logo-disfruta" xmlns="http://www.w3.org/2000/svg" viewBox="0 0 111.417 42"><defs><style>.a-logo-disfruta{fill:#ee3224}.b-logo-disfruta{fill:#fdbb30}</style></defs><path class="a-logo-disfruta" d="M8.391 22.673a4.664 4.664 0 0 1-3.614 1.47H0V10.3h4.716a4.464 4.464 0 0 1 3.614 1.47c1.225 1.348 1.225 3.369 1.225 5.451s.061 4.166-1.164 5.452zM7.228 12.628a3.3 3.3 0 0 0-2.7-.98H1.47v11.209h3a3.509 3.509 0 0 0 2.7-.98c.919-.98.919-2.634.919-4.594.057-1.96-.004-3.675-.861-4.655z" transform="translate(0 -4.01)"/><path class="a-logo-disfruta" d="M20.8 11.893V10.3h1.593v1.593zm.061 12.25v-9.555h1.409v9.555z" transform="translate(-8.06 -4.01)"/><path class="a-logo-disfruta" d="M31.32 26.861a5.088 5.088 0 0 1-3.92-1.409l.919-.919a3.884 3.884 0 0 0 3 1.1c1.593 0 2.573-.551 2.573-1.715 0-.858-.49-1.286-1.593-1.409l-1.593-.123c-1.838-.184-2.879-.98-2.879-2.573C27.829 18.041 29.3 17 31.32 17a5.1 5.1 0 0 1 3.43 1.041l-.858.98a3.888 3.888 0 0 0-2.573-.735c-1.409 0-2.144.613-2.144 1.593 0 .858.551 1.286 1.715 1.409l1.47.122c1.654.184 2.818.8 2.818 2.573.062 1.776-1.53 2.878-3.858 2.878z" transform="translate(-10.617 -6.606)"/><path class="a-logo-disfruta" d="M45.734 15.59v8.51h-1.409v-8.51H43.1v-1.041h1.225v-1.776a2.345 2.345 0 0 1 2.45-2.573h.98v1.225h-.735c-.919 0-1.286.551-1.286 1.409v1.715h2.021v1.041z" transform="translate(-16.701 -3.971)"/><path class="a-logo-disfruta" d="M59.929 19.06a1.942 1.942 0 0 0-1.654-.674 2.31 2.31 0 0 0-2.266 2.573v5.88H54.6v-9.617h1.409v1.164A3.284 3.284 0 0 1 58.7 17.1a2.723 2.723 0 0 1 2.266.919z" transform="translate(-21.157 -6.645)"/><path class="a-logo-disfruta" d="M73.925 26.816v-1.041a3.441 3.441 0 0 1-2.7 1.164 3.187 3.187 0 0 1-2.45-.919 3.655 3.655 0 0 1-.98-2.7V17.2h1.409v5.88c0 1.715.919 2.573 2.328 2.573a2.275 2.275 0 0 0 2.389-2.573V17.2h1.409v9.555h-1.405z" transform="translate(-26.271 -6.683)"/><path class="a-logo-disfruta" d="M87.775 25a2.345 2.345 0 0 1-2.45-2.573v-5.946H84.1V15.44h1.225V12.5h1.409v2.94h2.021v1.041h-2.021v5.88c0 .858.429 1.409 1.286 1.409h.735V25z" transform="translate(-32.587 -4.862)"/><path class="a-logo-disfruta" d="M101.086 26.816V25.9a3.432 3.432 0 0 1-2.756 1.041 3.486 3.486 0 0 1-2.7-.858 2.681 2.681 0 0 1-.735-1.96c0-1.715 1.164-2.756 3.308-2.756h2.879v-.919c0-1.409-.674-2.083-2.45-2.083a2.471 2.471 0 0 0-2.389 1.1l-.98-.858a3.653 3.653 0 0 1 3.373-1.407c2.573 0 3.8 1.1 3.8 3.185v6.493h-1.348zm0-4.41h-2.633c-1.409 0-2.144.551-2.144 1.715 0 1.1.674 1.654 2.205 1.654a3.045 3.045 0 0 0 2.144-.613 2.313 2.313 0 0 0 .49-1.654v-1.1z" transform="translate(-36.772 -6.683)"/><g><path class="a-logo-disfruta" d="M6.593 51.374H3.346v6.309H.1V40.9h6.493a5.2 5.2 0 0 1 5.574 5.268c0 2.878-2.083 5.206-5.574 5.206zm-.184-7.534H3.346v4.594h3.063a2.3 2.3 0 1 0 0-4.594z" transform="translate(-.039 -15.866)"/><path class="a-logo-disfruta" d="M30.576 51.491a2.013 2.013 0 0 0-1.654-.735 2.058 2.058 0 0 0-1.96 2.266v7.411H23.9V48.184h3v1.164A4.111 4.111 0 0 1 29.964 48a3.541 3.541 0 0 1 2.879 1.164z" transform="translate(-9.261 -18.617)"/><path class="a-logo-disfruta" d="M48.4 59.087a5.475 5.475 0 0 1-7.6 0c-1.1-1.164-1.409-2.573-1.409-4.778s.306-3.614 1.409-4.778a5.475 5.475 0 0 1 7.6 0c1.1 1.164 1.409 2.573 1.409 4.778-.057 2.205-.302 3.614-1.409 4.778zm-2.389-7.779a2.076 2.076 0 0 0-2.818 0 4.3 4.3 0 0 0-.735 3c0 1.286.061 2.389.735 3a1.845 1.845 0 0 0 1.409.551 1.757 1.757 0 0 0 1.409-.551 4.3 4.3 0 0 0 .735-3 4.388 4.388 0 0 0-.731-3z" transform="translate(-15.267 -18.617)"/><path class="a-logo-disfruta" d="M73.708 43.84v4.1h6.615v2.94h-6.615v6.8H70.4V40.9h11.087v2.94z" transform="translate(-27.279 -15.866)"/><path class="a-logo-disfruta" d="M98.666 60.55v-1.1a4.215 4.215 0 0 1-3.066 1.284 3.973 3.973 0 0 1-2.879-1.1A4.557 4.557 0 0 1 91.5 56.14V48.3h3.063v7.411a2.062 2.062 0 1 0 4.1 0V48.3h3.063v12.312h-3.06z" transform="translate(-35.455 -18.733)"/><path class="a-logo-disfruta" d="M116.939 58.5a3.317 3.317 0 0 1-3.553-3.491v-6.068H112.1v-2.327h1.286V43h3.063v3.614h2.144v2.328h-2.144v5.88c0 .735.306 1.1 1.041 1.1h1.1V58.5z" transform="translate(-43.437 -16.68)"/><path class="a-logo-disfruta" d="M134.266 60.55v-1.1a4.215 4.215 0 0 1-3.063 1.286 3.973 3.973 0 0 1-2.879-1.1 4.557 4.557 0 0 1-1.224-3.496V48.3h3.063v7.411a2.062 2.062 0 1 0 4.1 0V48.3h3.063v12.312h-3.063z" transform="translate(-49.25 -18.733)"/><path class="a-logo-disfruta" d="M156.076 51.491a2.013 2.013 0 0 0-1.654-.735 2.058 2.058 0 0 0-1.96 2.266v7.411H149.4V48.184h3v1.164A4.111 4.111 0 0 1 155.464 48a3.541 3.541 0 0 1 2.879 1.164z" transform="translate(-57.89 -18.617)"/><path class="a-logo-disfruta" d="M173.9 59.087a5.475 5.475 0 0 1-7.6 0c-1.1-1.164-1.409-2.573-1.409-4.778s.306-3.614 1.409-4.778a5.475 5.475 0 0 1 7.6 0c1.1 1.164 1.409 2.573 1.409 4.778-.057 2.205-.302 3.614-1.409 4.778zm-2.389-7.779a2.076 2.076 0 0 0-2.818 0 4.3 4.3 0 0 0-.735 3c0 1.286.061 2.389.735 3a1.845 1.845 0 0 0 1.409.551 1.757 1.757 0 0 0 1.409-.551 4.3 4.3 0 0 0 .735-3 4.388 4.388 0 0 0-.731-3z" transform="translate(-63.896 -18.617)"/></g><g><path class="a-logo-disfruta-last a-logo-disfruta" d="M157.52 25.858a3.314 3.314 0 0 0 3.8-2.7l1.28-7.958 1.654.735a2.051 2.051 0 0 1 1.041 2.634l-4.59 10.351a2.051 2.051 0 0 1-2.634 1.041L143.8 23.653z" transform="translate(-55.72 -5.908)"/><path class="b-logo-disfruta" d="M149.58 10.835a1.054 1.054 0 1 0-1.47.245 1.07 1.07 0 0 0 1.47-.245z" transform="translate(-57.212 -3.564)"/><path class="b-logo-disfruta" d="M150.514 3.381L130.117.073a5.2 5.2 0 0 0-3.553.919l-5.206 3.981a2.178 2.178 0 0 0-.8 2.021l.735 1.286c-.184.245-.368.551-.551.858a13.891 13.891 0 0 0-1.9 4.778v.061c-.367 2.389.551 3.369 1.164 3.736s1.838.735 3.859-.674a11.525 11.525 0 0 0 2.328-2.266 5.341 5.341 0 0 0 1.531.613l20.458 3.308a2.016 2.016 0 0 0 2.328-1.654l1.838-11.27a2.332 2.332 0 0 0-1.834-2.389zm-24.929 8.7a12.829 12.829 0 0 1-.919 1.348c-1.654 2.144-3.246 2.818-3.614 2.511-.122-.061-.368-.551-.245-1.715v-.061a11.777 11.777 0 0 1 1.654-4.1l1.47 2.328c.184-.245.49-.735.735-1.041a14.829 14.829 0 0 0 1.286-2.634 2.035 2.035 0 0 1-.551-1.654 1.923 1.923 0 1 1 1.593 2.205h-.122a11.518 11.518 0 0 1-1.288 2.81zm9.433-5.023a2.6 2.6 0 0 1 5.145-.8 2.652 2.652 0 0 1-2.205 2.94 2.5 2.5 0 0 1-2.941-2.142zm1.225 7.044a.6.6 0 0 1-.061-.858l7.105-7.9a.608.608 0 1 1 .919.8L137.1 14.1a.592.592 0 0 1-.858 0zm6.983 1.225a2.6 2.6 0 1 1 2.205-3 2.7 2.7 0 0 1-2.206 2.998z" transform="translate(-46.019 -.03)"/><path class="b-logo-disfruta" d="M158.035 19.265a1.054 1.054 0 1 0 .245 1.47 1.079 1.079 0 0 0-.245-1.47z" transform="translate(-60.584 -7.401)"/></g></svg>
