<svg id="logo-profuturo" xmlns="http://www.w3.org/2000/svg" viewBox="0 0 135.246 47"><defs><style>.a-logo-profuturo{fill:#ee3224;}.b-logo-profuturo{fill:#ffbb0f;}</style></defs><path class="a-logo-profuturo" d="M7.352,26.16H3.8v5.107H7.352a2.539,2.539,0,0,0,2.825-2.535A2.584,2.584,0,0,0,7.352,26.16m.181,8.4H3.8v7.026H0V22.9H7.533c4.02,0,6.41,2.644,6.41,5.831s-2.39,5.831-6.41,5.831" transform="translate(0 -14.618)"/><path class="a-logo-profuturo" d="M52.814,40.211a2.455,2.455,0,0,0-1.883-.8,2.317,2.317,0,0,0-2.282,2.535v8.221H45.1V36.481h3.477v1.3A4.921,4.921,0,0,1,52.162,36.3a4.417,4.417,0,0,1,3.368,1.268Z" transform="translate(-28.766 -23.165)"/><path class="a-logo-profuturo" d="M81.542,40.058a2.242,2.242,0,0,0-1.666-.616,2.156,2.156,0,0,0-1.63.616c-.724.724-.833,1.883-.833,3.3s.072,2.608.833,3.332a2.213,2.213,0,0,0,1.63.616,2.242,2.242,0,0,0,1.666-.616c.724-.724.833-1.919.833-3.332s-.072-2.608-.833-3.3m2.752,8.62a6.644,6.644,0,0,1-8.8,0c-1.268-1.3-1.594-2.825-1.594-5.324,0-2.463.326-4.02,1.594-5.288A5.855,5.855,0,0,1,79.876,36.4a6.092,6.092,0,0,1,4.418,1.666c1.268,1.3,1.63,2.825,1.63,5.288,0,2.5-.326,4.02-1.63,5.324" transform="translate(-47.136 -23.229)"/><path class="a-logo-profuturo" d="M117.034,30.521V41.205h-3.549V30.521H112V27.914h1.485v-1.7A3.809,3.809,0,0,1,117.65,22.3h2.028v2.9H118.3a1.093,1.093,0,0,0-1.231,1.231v1.485h2.608v2.608Z" transform="translate(-71.437 -14.236)"/><path class="a-logo-profuturo" d="M147.066,50.454V49.186a5.011,5.011,0,0,1-3.549,1.412,4.768,4.768,0,0,1-3.368-1.2,4.887,4.887,0,0,1-1.449-3.875V36.8h3.549v8.257a2.375,2.375,0,1,0,4.744,0V36.8h3.549V50.454Z" transform="translate(-88.467 -23.484)"/><path class="a-logo-profuturo" d="M183.214,44.012a3.779,3.779,0,0,1-4.129-3.911V33.328H177.6V30.72h1.485V26.7h3.549v4.056h2.5v2.571h-2.5v6.555a1.079,1.079,0,0,0,1.231,1.231h1.268v2.9Z" transform="translate(-113.279 -17.042)"/><path class="a-logo-profuturo" d="M213.766,50.454V49.186a5.011,5.011,0,0,1-3.549,1.412,4.768,4.768,0,0,1-3.368-1.2,4.887,4.887,0,0,1-1.449-3.875V36.8h3.549v8.257a2.358,2.358,0,1,0,4.708,0V36.8h3.549V50.454Z" transform="translate(-131.011 -23.484)"/><path class="a-logo-profuturo" d="M255.314,40.211a2.455,2.455,0,0,0-1.883-.8,2.317,2.317,0,0,0-2.282,2.535v8.221H247.6V36.481h3.477v1.3a4.922,4.922,0,0,1,3.585-1.485,4.417,4.417,0,0,1,3.368,1.268Z" transform="translate(-157.927 -23.165)"/><path class="a-logo-profuturo" d="M284.042,40.058a2.242,2.242,0,0,0-1.666-.616,2.155,2.155,0,0,0-1.63.616c-.724.724-.833,1.883-.833,3.3s.072,2.608.833,3.332a2.212,2.212,0,0,0,1.63.616,2.242,2.242,0,0,0,1.666-.616c.724-.724.833-1.919.833-3.332s-.109-2.608-.833-3.3m2.753,8.62a6.644,6.644,0,0,1-8.8,0c-1.268-1.3-1.594-2.825-1.594-5.324,0-2.463.326-4.02,1.594-5.288a5.855,5.855,0,0,1,4.382-1.666,6.092,6.092,0,0,1,4.419,1.666c1.268,1.3,1.593,2.825,1.593,5.288.036,2.5-.29,4.02-1.593,5.324" transform="translate(-176.297 -23.229)"/><path class="b-logo-profuturo" d="M287.543,11.725c-.109,0-.109.072-.109.109s0,.072.072.109c9.453.4,13.255,4.925,10.539,13.618-2.789,8.873-11.77,19.811-24.338,28.1-.29.217.072.579.217.543,15.646-8.837,28.539-20.861,31.545-30.422s-4.6-13.98-17.927-12.06" transform="translate(-174.51 -7.209)"/><path class="a-logo-profuturo" d="M353.725.637c-.036-.072-.181-.217-.036-.254,2.572-.326,6.012-.833,6.881.688s-.833,8.185-3.259,4.744c-2.5-3.622-3.006-4.455-3.585-5.179" transform="translate(-225.554 -0.033)"/><path class="a-logo-profuturo" d="M243.469,86.809v4.817H241.8v-.435a2.209,2.209,0,0,1-1.666.579,2.563,2.563,0,0,1,.109-5.07,2.052,2.052,0,0,1,1.557.543v-.435Zm-3.694,2.39a1.155,1.155,0,0,0,1.087,1.3c.471,0,.942-.507.942-1.268A1.123,1.123,0,0,0,240.861,88a1.058,1.058,0,0,0-1.087,1.2" transform="translate(-151.804 -55.312)"/><path class="a-logo-profuturo" d="M169.17,91.77c-1.775,0-2.97-1.014-2.97-2.535a2.708,2.708,0,0,1,2.97-2.535,2.554,2.554,0,1,1,0,5.07m0-1.2a1.233,1.233,0,0,0,1.087-1.34c0-.724-.362-1.34-1.087-1.34a1.181,1.181,0,0,0-1.2,1.34,1.222,1.222,0,0,0,1.2,1.34" transform="translate(-106.008 -55.312)"/><path class="a-logo-profuturo" d="M220.8,88.373V81.6h1.666v2.318a2.622,2.622,0,0,1,1.557-.471,2.529,2.529,0,0,1,0,5.034,2.356,2.356,0,0,1-1.557-.507l-.109.362H220.8Zm3.694-2.39c0-.688-.362-1.231-.942-1.231a1.129,1.129,0,0,0-1.087,1.231c0,.724.362,1.231,1.087,1.231.579,0,.942-.507.942-1.231" transform="translate(-140.833 -52.059)"/><rect class="a-logo-profuturo" width="1.811" height="4.817" transform="translate(70.659 31.533)"/><path class="a-logo-profuturo" d="M196.042,80.3a.865.865,0,0,0-.942.905.943.943,0,0,0,.942.978,1.018,1.018,0,0,0,.942-.978.905.905,0,0,0-.942-.905" transform="translate(-124.441 -51.23)"/><path class="a-logo-profuturo" d="M256.4,91.689h1.666V89.263c0-.616.362-1.014.833-1.014a.914.914,0,0,1,.942,1.014v2.427h1.666v-2.9a1.91,1.91,0,0,0-2.028-1.992,2.072,2.072,0,0,0-1.557.652l-.109-.507H256.4v4.744Z" transform="translate(-163.54 -55.376)"/><path class="a-logo-profuturo" d="M273.5,88.373h1.666V86.163l1.557,2.209h1.919l-1.811-2.5,1.811-2.282h-1.919l-1.557,1.992V81.6H273.5Z" transform="translate(-174.447 -52.059)"/><path class="a-logo-profuturo" d="M158.148,86.917a3.028,3.028,0,0,0-1.3-.217,2.444,2.444,0,0,0-2.644,2.535,2.475,2.475,0,0,0,2.644,2.5,10.251,10.251,0,0,0,1.3-.145l-.109-1.449a1.73,1.73,0,0,1-.833.254,1.112,1.112,0,0,1-1.2-1.159,1.094,1.094,0,0,1,1.2-1.159,1.731,1.731,0,0,1,.833.254Z" transform="translate(-98.354 -55.312)"/><path class="a-logo-profuturo" d="M207.786,86.809v4.817h-1.775v-.435a2.284,2.284,0,0,1-1.666.579,2.546,2.546,0,0,1,.145-5.07,2.053,2.053,0,0,1,1.557.543v-.435Zm-3.8,2.39a1.155,1.155,0,0,0,1.087,1.3c.471,0,.942-.507.942-1.268,0-.724-.362-1.231-.942-1.231a1.058,1.058,0,0,0-1.087,1.2" transform="translate(-128.906 -55.312)"/><path class="a-logo-profuturo" d="M138.736,88.61a9.951,9.951,0,0,0,2.028.254c1.449,0,2.97-.507,2.97-2.064,0-2.137-3.115-1.883-3.115-2.752,0-.435.471-.507.942-.507a4.4,4.4,0,0,1,1.557.362l.253-1.485a6.894,6.894,0,0,0-1.811-.217c-1.413,0-2.861.507-2.861,1.992,0,2.1,2.97,1.666,2.97,2.789,0,.4-.362.543-.942.543a4.1,4.1,0,0,1-1.775-.471Z" transform="translate(-88.467 -52.442)"/><path class="a-logo-profuturo" d="M186.594,87.934a2.061,2.061,0,0,1-.579.109c-.362,0-.724-.145-.724-.761v-1.63h1.087v-1.2H185.29V82.9h-1.666v1.557H182.9v1.2h.724v1.956a1.571,1.571,0,0,0,1.775,1.775,5.633,5.633,0,0,0,.942-.109Z" transform="translate(-116.66 -52.888)"/><path class="a-logo-profuturo" d="M1.738,87.858l1.087-2.716,1.087,2.716ZM2.463,84.2,0,90.067H.8l.616-1.521H4.165l.616,1.521h.833L3.26,84.2Z" transform="translate(0 -53.717)"/><path class="a-logo-profuturo" d="M16.4,90.067h.8v-2.68h2.064V86.7H17.2V84.888H19.37V84.2H16.4Z" transform="translate(-10.46 -53.717)"/><path class="a-logo-profuturo" d="M28.735,86.382a.639.639,0,0,1-.326.29,1.692,1.692,0,0,1-.507.145,3.313,3.313,0,0,1-.616.036H27V84.824h.8a.9.9,0,0,1,1.014,1.014.563.563,0,0,1-.072.543m.4-1.847a2.088,2.088,0,0,0-1.376-.435H26.2V90H27V87.541h.688a2.757,2.757,0,0,0,.761-.109,1.669,1.669,0,0,0,.616-.326,1.6,1.6,0,0,0,.435-.543,1.68,1.68,0,0,0,.145-.761,1.423,1.423,0,0,0-.507-1.268" transform="translate(-16.711 -53.654)"/><path class="a-logo-profuturo" d="M45.306,87.708a3.186,3.186,0,0,1-.181.543,1.253,1.253,0,0,1-.362.4.832.832,0,0,1-.507.145.873.873,0,0,1-.543-.145,1.717,1.717,0,0,1-.362-.362,1.217,1.217,0,0,1-.181-.507,4.654,4.654,0,0,1,0-1.159,2.1,2.1,0,0,1,.181-.507,1.151,1.151,0,0,1,.362-.362.873.873,0,0,1,.543-.145.708.708,0,0,1,.507.145,1.292,1.292,0,0,1,.362.4,1.206,1.206,0,0,1,.181.543,3.17,3.17,0,0,1,.072.579c0,.036-.036.217-.072.435m.072-2.318c-.072-.072-.109-.145-.217-.181a1.252,1.252,0,0,0-.435-.254,1.5,1.5,0,0,0-.579-.109,1.888,1.888,0,0,0-.833.181,1.511,1.511,0,0,0-.579.471,2.211,2.211,0,0,0-.326.724,3.447,3.447,0,0,0-.109.905,3.169,3.169,0,0,0,.109.869,1.711,1.711,0,0,0,.362.724,1.953,1.953,0,0,0,.579.507,1.844,1.844,0,0,0,.8.181,1.889,1.889,0,0,0,.833-.181,1.579,1.579,0,0,0,.4-.326v.435h.761V83h-.761Z" transform="translate(-26.98 -52.952)"/><path class="a-logo-profuturo" d="M55.2,89.983a1.286,1.286,0,0,1,.072-.362,2.434,2.434,0,0,1,.217-.435,1.418,1.418,0,0,1,.362-.29,1,1,0,0,1,.905,0,1.1,1.1,0,0,1,.29.29,1.209,1.209,0,0,1,.181.435,1.486,1.486,0,0,1,.036.4H55.2Zm2.463-1.231a1.353,1.353,0,0,0-.543-.471,1.889,1.889,0,0,0-.833-.181,1.684,1.684,0,0,0-.761.181,1.991,1.991,0,0,0-.616.471,1.943,1.943,0,0,0-.362.724,3.3,3.3,0,0,0-.036,1.811,1.711,1.711,0,0,0,.362.724,1.577,1.577,0,0,0,.652.507,2.422,2.422,0,0,0,.942.181,5.093,5.093,0,0,0,.652-.072,3.059,3.059,0,0,0,.616-.181l.072-.036v-.8l-.217.072a1.2,1.2,0,0,1-.217.109c-.109.036-.181.072-.29.109s-.217.036-.326.072a1.229,1.229,0,0,1-.833-.072,1.132,1.132,0,0,1-.4-.326,1.446,1.446,0,0,1-.254-.471,1.835,1.835,0,0,1-.072-.471h2.9v-.362a2.824,2.824,0,0,0-.109-.8,2.211,2.211,0,0,0-.326-.724" transform="translate(-34.698 -56.205)"/><rect class="a-logo-profuturo" width="0.761" height="6.302" transform="translate(23.975 30.048)"/><path class="a-logo-profuturo" d="M79.07,90.925a1.122,1.122,0,0,1-.217.471,1.718,1.718,0,0,1-.362.362,1.2,1.2,0,0,1-.543.145,1.157,1.157,0,0,1-.507-.109.711.711,0,0,1-.326-.326,1.057,1.057,0,0,1-.181-.507,2.814,2.814,0,0,1-.072-.579A3.115,3.115,0,0,1,76.9,89.8a2.094,2.094,0,0,1,.181-.507,1.151,1.151,0,0,1,.362-.362.873.873,0,0,1,.543-.145,1.209,1.209,0,0,1,.543.109.711.711,0,0,1,.326.326,2.1,2.1,0,0,1,.181.507,3.993,3.993,0,0,1,.072.652,1.38,1.38,0,0,1-.036.543m.072-2.427-.109-.109a1.469,1.469,0,0,0-.326-.181,1.072,1.072,0,0,0-.362-.072c-.109,0-.254-.036-.4-.036a1.889,1.889,0,0,0-.833.181,1.511,1.511,0,0,0-.579.471,2.21,2.21,0,0,0-.326.724,3.448,3.448,0,0,0-.109.905,5.442,5.442,0,0,0,.072.724,2.615,2.615,0,0,0,.326.724,2.074,2.074,0,0,0,.579.543,1.764,1.764,0,0,0,.905.217,1.973,1.973,0,0,0,.8-.181,1.579,1.579,0,0,0,.4-.326,1.358,1.358,0,0,1-.036.4,1.723,1.723,0,0,1-.181.652.717.717,0,0,1-.4.4,1.436,1.436,0,0,1-.724.145,3.99,3.99,0,0,1-.652-.072,1.888,1.888,0,0,1-.543-.217l-.145-.072-.072.761.072.036c.109.036.29.072.507.145a2.825,2.825,0,0,0,.8.109,2.765,2.765,0,0,0,.978-.181,2.15,2.15,0,0,0,.652-.471,1.711,1.711,0,0,0,.362-.724,3.087,3.087,0,0,0,.109-.833V88.209h-.761Z" transform="translate(-48.539 -56.205)"/><path class="a-logo-profuturo" d="M90.82,88.075a1.117,1.117,0,0,0-.616.072.652.652,0,0,0-.326.217.872.872,0,0,0-.217.29v-.471H88.9l.036.145a.272.272,0,0,0,.036.181v4.02h.688V90.357a2.741,2.741,0,0,1,.036-.543,2.075,2.075,0,0,1,.145-.507,1.418,1.418,0,0,1,.29-.362.777.777,0,0,1,.435-.145h.181c.072,0,.109,0,.145.036l.145.036v-.761l-.072-.036c0,.036-.072.036-.145,0" transform="translate(-56.703 -56.18)"/><path class="a-logo-profuturo" d="M99.485,92.067v-3.73h-.761v2.39a2.445,2.445,0,0,1-.072.507,1.208,1.208,0,0,1-.181.435.793.793,0,0,1-.362.326,1.209,1.209,0,0,1-.543.109.821.821,0,0,1-.688-.29,1.545,1.545,0,0,1-.217-.869V88.3H95.9v2.789a3.248,3.248,0,0,0,.072.652,1.306,1.306,0,0,0,.29.543,1.08,1.08,0,0,0,.507.362,1.971,1.971,0,0,0,.724.145,2.521,2.521,0,0,0,.579-.072,3.944,3.944,0,0,0,.4-.217.846.846,0,0,0,.254-.254v.471h.761V92.61a2.716,2.716,0,0,0,0-.543" transform="translate(-61.168 -56.332)"/><path class="a-logo-profuturo" d="M111.234,90.961a2.093,2.093,0,0,1-.181.507,1.036,1.036,0,0,1-.905.507.708.708,0,0,1-.507-.145,1.291,1.291,0,0,1-.362-.4,1.889,1.889,0,0,1-.217-.543,3.17,3.17,0,0,1-.072-.579,3.612,3.612,0,0,1,.072-.579,1.708,1.708,0,0,1,.217-.543.873.873,0,0,1,.362-.362.831.831,0,0,1,.507-.145.873.873,0,0,1,.543.145,1.716,1.716,0,0,1,.362.362,2.093,2.093,0,0,1,.181.507,3.114,3.114,0,0,1,.036.579,3.735,3.735,0,0,1-.036.688m.435-2.209a1.454,1.454,0,0,0-.579-.471,1.889,1.889,0,0,0-.833-.181,1.692,1.692,0,0,0-.616.109,1.253,1.253,0,0,0-.435.254.96.96,0,0,0-.181.217l.036-.471H108.3v6.048h.761V92.12a2.769,2.769,0,0,0,.326.326,1.545,1.545,0,0,0,.869.217,2.012,2.012,0,0,0,.833-.181,1.551,1.551,0,0,0,.579-.507,2.5,2.5,0,0,0,.471-1.594,3.649,3.649,0,0,0-.109-.905,4.507,4.507,0,0,0-.362-.724" transform="translate(-69.077 -56.205)"/><path class="a-logo-profuturo" d="M123.023,91.1a1.659,1.659,0,0,1-.254.507,1.132,1.132,0,0,1-.4.326,1.412,1.412,0,0,1-1.087,0,1.132,1.132,0,0,1-.4-.326,2.212,2.212,0,0,1-.254-.507,1.8,1.8,0,0,1-.072-.652,3.99,3.99,0,0,1,.072-.652,2.214,2.214,0,0,1,.254-.507,1.132,1.132,0,0,1,.4-.326,1.413,1.413,0,0,1,1.087,0,1.133,1.133,0,0,1,.4.326,2.214,2.214,0,0,1,.254.507,1.9,1.9,0,0,1,.072.652,1.348,1.348,0,0,1-.072.652m.8-1.485a2.266,2.266,0,0,0-.362-.724,1.77,1.77,0,0,0-.652-.507,1.907,1.907,0,0,0-.942-.181,2.422,2.422,0,0,0-.942.181,1.77,1.77,0,0,0-.652.507,1.949,1.949,0,0,0-.362.724,3.249,3.249,0,0,0,0,1.666,2.265,2.265,0,0,0,.362.724,1.77,1.77,0,0,0,.652.507,2.539,2.539,0,0,0,1.883,0,1.77,1.77,0,0,0,.652-.507,1.949,1.949,0,0,0,.362-.724,3.289,3.289,0,0,0,.109-.833,3.087,3.087,0,0,0-.109-.833" transform="translate(-76.412 -56.269)"/></svg>