<svg xmlns="http://www.w3.org/2000/svg" viewBox="0 0 16.004 19">
  <path d="M14.204 14.2a1.71 1.71 0 0 0 1.8-1.7v-1.4a1.752 1.752 0 0 0-1.7-1.7h-7.5l-.5-1.8h5.3a.5.5 0 0 0 0-1h-5.5l-1.4-4.8a2.267 2.267 0 0 0-2.3-1.8 1.268 1.268 0 0 0-.6.1A2.28 2.28 0 0 0 .104 3l2.6 9.4a2.46 2.46 0 0 0 2.3 1.8h4.1V18h-4a.5.5 0 0 0 0 1h9.2a.5.5 0 0 0 0-1h-4.1v-3.8zM2.104 1h.4a1.481 1.481 0 0 1 1.3 1l1.2 4.6h-2.9l-1-3.9a1.371 1.371 0 0 1 1-1.7zm2.9 12.2a1.412 1.412 0 0 1-1.4-1l-1.2-4.6h2.9l.7 2.5a.664.664 0 0 0 .5.4h7.9a.684.684 0 0 1 .7.7v1.4a.684.684 0 0 1-.7.7h-9.4zm0 0" fill="#757575"/>
</svg>
