<svg xmlns="http://www.w3.org/2000/svg" viewBox="0 0 28 22.711"><defs><style>.a{fill:#757575;fill-rule:evenodd;}</style></defs><path class="a" d="M46.867,24.711C57.444,24.711,63.2,16,63.2,8.378V7.6A12.644,12.644,0,0,0,66,4.644a12.913,12.913,0,0,1-3.267.933,6.052,6.052,0,0,0,2.489-3.111,14.267,14.267,0,0,1-3.578,1.4A5.555,5.555,0,0,0,57.444,2a5.844,5.844,0,0,0-5.756,5.756A3.033,3.033,0,0,0,51.844,9,16.083,16.083,0,0,1,40.022,2.933a5.957,5.957,0,0,0-.778,2.956,6.18,6.18,0,0,0,2.489,4.822,5.244,5.244,0,0,1-2.644-.778h0a5.685,5.685,0,0,0,4.667,5.6,4.8,4.8,0,0,1-1.556.156,2.647,2.647,0,0,1-1.089-.156,5.893,5.893,0,0,0,5.444,4.044A11.745,11.745,0,0,1,39.4,22.067a4.307,4.307,0,0,1-1.4-.156,14.683,14.683,0,0,0,8.867,2.8" transform="translate(-38 -2)"/></svg>