<svg xmlns="http://www.w3.org/2000/svg" width="19.5" height="19" viewBox="0 0 19.5 19"><defs><style>.a{fill:#fff;}</style></defs><path class="a" d="M18.8,19H.8a.736.736,0,0,1-.8-.8V16.4A4.316,4.316,0,0,1,1.8,13a13.425,13.425,0,0,1,8-2.6,13.425,13.425,0,0,1,8,2.6,4.215,4.215,0,0,1,1.7,3.4v1.8A.713.713,0,0,1,18.8,19ZM1.5,17.5H18v-1a2.8,2.8,0,0,0-1.1-2.2,12.109,12.109,0,0,0-14.2,0,2.656,2.656,0,0,0-1.1,2.2v1Z"/><path class="a" d="M9.8,10.5A5.228,5.228,0,0,1,4.6,5.3,5.315,5.315,0,0,1,9.8,0,5.228,5.228,0,0,1,15,5.2,5.383,5.383,0,0,1,9.8,10.5Zm0-9A3.778,3.778,0,0,0,6,5.2,3.864,3.864,0,0,0,9.8,9a3.8,3.8,0,0,0,3.8-3.8A3.777,3.777,0,0,0,9.8,1.5Z"/></svg>